<svg xmlns="http://www.w3.org/2000/svg" xmlns:xlink="http://www.w3.org/1999/xlink" width="25mm" height="20mm" viewBox="0 0 25 20"><defs><pattern id="a" width="10" height="10" patternTransform="scale(10)" patternUnits="userSpaceOnUse"><circle cx="2.567" cy=".81" r=".45"/><circle cx="3.048" cy="2.33" r=".45"/><circle cx="4.418" cy="2.415" r=".45"/><circle cx="1.844" cy="3.029" r=".45"/><circle cx="6.08" cy="1.363" r=".45"/><circle cx="5.819" cy="4.413" r=".45"/><circle cx="4.305" cy="4.048" r=".45"/><circle cx="5.541" cy="3.045" r=".45"/><circle cx="4.785" cy="5.527" r=".45"/><circle cx="2.667" cy="5.184" r=".45"/><circle cx="7.965" cy="1.448" r=".45"/><circle cx="7.047" cy="5.049" r=".45"/><circle cx="4.34" cy=".895" r=".45"/><circle cx="7.125" cy=".34" r=".45"/><circle cx="9.553" cy="1.049" r=".45"/><circle cx="7.006" cy="2.689" r=".45"/><circle cx="8.909" cy="2.689" r=".45"/><circle cx="9.315" cy="4.407" r=".45"/><circle cx="7.82" cy="3.87" r=".45"/><circle cx="8.27" cy="5.948" r=".45"/><circle cx="7.973" cy="7.428" r=".45"/><circle cx="9.342" cy="8.072" r=".45"/><circle cx="8.206" cy="9.315" r=".45"/><circle cx="9.682" cy="9.475" r=".45"/><circle cx="9.688" cy="6.186" r=".45"/><circle cx="3.379" cy="6.296" r=".45"/><circle cx="2.871" cy="8.204" r=".45"/><circle cx="4.59" cy="8.719" r=".45"/><circle cx="3.181" cy="9.671" r=".45"/><circle cx="5.734" cy="7.315" r=".45"/><circle cx="6.707" cy="6.513" r=".45"/><circle cx="5.73" cy="9.67" r=".45"/><circle cx="6.535" cy="8.373" r=".45"/><circle cx="4.37" cy="7.154" r=".45"/><circle cx=".622" cy="7.25" r=".45"/><circle cx=".831" cy="5.679" r=".45"/><circle cx="1.257" cy="8.519" r=".45"/><circle cx="1.989" cy="6.877" r=".45"/><circle cx=".374" cy="3.181" r=".45"/><circle cx="1.166" cy="1.664" r=".45"/><circle cx="1.151" cy=".093" r=".45"/><circle cx="1.151" cy="10.093" r=".45"/><circle cx="1.302" cy="4.451" r=".45"/><circle cx="3.047" cy="3.763" r=".45"/></pattern><pattern xlink:href="#b" patternTransform="matrix(.89286 0 0 1.3571 162.14 915.36)" id="d"/><pattern xlink:href="#b" patternTransform="matrix(1.2857 0 0 1.1786 197.99 957.62)" id="e"/><pattern xlink:href="#b" patternTransform="matrix(1.0357 0 0 1.6429 177.14 925.71)" id="f"/><pattern patternUnits="userSpaceOnUse" patternTransform="scale(10)" height="10" width="10" id="b"><circle r=".45" cy=".81" cx="2.567"/><circle r=".45" cy="2.33" cx="3.048"/><circle r=".45" cy="2.415" cx="4.418"/><circle r=".45" cy="3.029" cx="1.844"/><circle r=".45" cy="1.363" cx="6.08"/><circle r=".45" cy="4.413" cx="5.819"/><circle r=".45" cy="4.048" cx="4.305"/><circle r=".45" cy="3.045" cx="5.541"/><circle r=".45" cy="5.527" cx="4.785"/><circle r=".45" cy="5.184" cx="2.667"/><circle r=".45" cy="1.448" cx="7.965"/><circle r=".45" cy="5.049" cx="7.047"/><circle r=".45" cy=".895" cx="4.34"/><circle r=".45" cy=".34" cx="7.125"/><circle r=".45" cy="1.049" cx="9.553"/><circle r=".45" cy="2.689" cx="7.006"/><circle r=".45" cy="2.689" cx="8.909"/><circle r=".45" cy="4.407" cx="9.315"/><circle r=".45" cy="3.87" cx="7.82"/><circle r=".45" cy="5.948" cx="8.27"/><circle r=".45" cy="7.428" cx="7.973"/><circle r=".45" cy="8.072" cx="9.342"/><circle r=".45" cy="9.315" cx="8.206"/><circle r=".45" cy="9.475" cx="9.682"/><circle r=".45" cy="6.186" cx="9.688"/><circle r=".45" cy="6.296" cx="3.379"/><circle r=".45" cy="8.204" cx="2.871"/><circle r=".45" cy="8.719" cx="4.59"/><circle r=".45" cy="9.671" cx="3.181"/><circle r=".45" cy="7.315" cx="5.734"/><circle r=".45" cy="6.513" cx="6.707"/><circle r=".45" cy="9.67" cx="5.73"/><circle r=".45" cy="8.373" cx="6.535"/><circle r=".45" cy="7.154" cx="4.37"/><circle r=".45" cy="7.25" cx=".622"/><circle r=".45" cy="5.679" cx=".831"/><circle r=".45" cy="8.519" cx="1.257"/><circle r=".45" cy="6.877" cx="1.989"/><circle r=".45" cy="3.181" cx=".374"/><circle r=".45" cy="1.664" cx="1.166"/><circle r=".45" cy=".093" cx="1.151"/><circle r=".45" cy="10.093" cx="1.151"/><circle r=".45" cy="4.451" cx="1.302"/><circle r=".45" cy="3.763" cx="3.047"/></pattern><radialGradient gradientUnits="userSpaceOnUse" gradientTransform="matrix(1.5376 -.24896 .0644 .38579 -74.689 618.84)" r="9.931" cy="1002.1" cx="19.523" id="c"><stop offset="0" stop-color="#e7e8fa"/><stop offset="1" stop-color="#8e90ae"/></radialGradient></defs><g fill-rule="evenodd"><path d="M9.818 5.405c.07.071.637.973 1.642 2.114 1.006 1.142 2.45 2.523 3.762 4.017 1.312 1.494 2.466 3.007 3.456 4.135.99 1.129 1.845 1.721 1.854 1.917.156.178-.346 1.098-.968 1.66-.622.564-1.128.556-1.284.378-.21-.076-.573-.91-1.568-2.036-.995-1.126-2.441-2.5-3.761-3.995-1.32-1.494-2.364-3.069-3.368-4.207C8.58 8.249 7.615 7.547 7.57 7.489z" color="#000" fill="#843600" stroke="#000" stroke-width=".35220271999999997" stroke-linecap="round" stroke-linejoin="bevel"/><g stroke="red" stroke-width=".29"><path d="M32.845 968.99c4.184-2.175 12.824-7.043 15.268-7.912 1.176-.543 8.015-2.963 10.651-2.67l-15.963 8.704z" fill="#35374f" stroke-linejoin="bevel" transform="matrix(.23917 .02856 -.029 .24285 26.853 -234.363)"/><path d="M18.355 994.21l24.375-26.655 15.217-8.464c.587-.643 2.079-.456 2.669.084.59.54 1.812 2.882 1.23 3.332l-6.766 15.354-25.357 27.46-5.684-5.913z" color="#000" fill="#35374f" stroke-linecap="round" stroke-linejoin="round" transform="matrix(.23917 .02856 -.029 .24285 26.853 -234.363)"/><path d="M9.239 994.84c2.789.234 5.67.006 8.698-.949l24.852-26.85c-1.92-.035-6.246 1.133-9.946 1.987-8.467 8.006-16.075 16.87-23.605 25.812z" fill="#35374f" transform="matrix(.23917 .02856 -.029 .24285 26.853 -234.363)"/><path d="M9.544 995.59l8.72-1.407c4.029 3.266 7.275 6.232 10.852 11.077-3.25-.03-6.3.634-9.988-.931-3.924-2.421-6.6-5.377-9.584-8.74z" color="#000" fill="url(#c)" stroke-linecap="round" stroke-linejoin="round" transform="matrix(.23917 .02856 -.029 .24285 26.853 -234.363)"/></g><g stroke="red" stroke-width=".29"><path d="M107.62 901.52c4.184-2.175 12.824-7.043 15.268-7.912 1.176-.543 8.015-2.963 10.651-2.67l-15.963 8.704z" fill="url(#d)" stroke-linejoin="bevel" transform="matrix(.23917 .02856 -.029 .24285 7.012 -220.114)"/><path d="M93.134 926.74l24.375-26.655 15.217-8.464c.587-.643 2.079-.456 2.669.084.59.54 1.812 2.882 1.23 3.332l-6.766 15.354-25.357 27.46-5.684-5.913z" color="#000" fill="url(#e)" stroke-linecap="round" stroke-linejoin="round" transform="matrix(.23917 .02856 -.029 .24285 7.012 -220.114)"/><path d="M84.018 927.37c2.79.234 5.671.006 8.699-.949l24.852-26.85c-1.921-.035-6.247 1.133-9.947 1.987-8.466 8.006-16.074 16.87-23.604 25.812z" fill="url(#f)" transform="matrix(.23917 .02856 -.029 .24285 7.012 -220.114)"/></g><path style="text-indent:0;text-decoration-line:none;text-decoration-style:solid;text-decoration-color:#000;text-transform:none;white-space:normal;isolation:auto;mix-blend-mode:normal;solid-color:#000" d="M13.11-.037c-.92-.044-1.897.129-2.709.331-1.273.42-2.499.973-3.751 1.452v.006l-.01.001C4.386 3.543 2.286 5.447.215 7.375c-.18.184-.124.282-.011.476.599.853 1.273 1.665 2.07 2.383.772.298 1.616.437 2.472.543.247-.112.453-.31.65-.494C7.359 8.431 9.53 6.61 11.683 4.775c.703-1.183 1.4-2.37 2.1-3.554-.052.17.261-.546.022-.73-.106-.294-.398-.475-.694-.526v-.002zm-1.663.612c-.744.284-1.767.739-2.515 1.008-.59.04-1.184.099-1.78.18C8.616 1.215 10.76.197 12.356.22c-.233.096-.44.162-.91.355zm1.399-.298c.411-.002 1.003.299.582.935-.665 1.112-1.267 2.243-1.946 3.343C9.221 6.454 7.02 8.41 4.819 10.32c-.753-.734-1.532-1.82-2.2-2.778 2.22-1.987 4.404-3.87 6.613-5.744 1.257-.535 2.366-.97 3.614-1.52zm-4.11 1.552C6.62 3.73 4.5 5.51 2.377 7.376c-.595.114-1.26.162-1.88.014A160.204 160.204 0 016.74 1.986c.686-.097 1.319-.138 1.996-.157zM2.351 7.704c.714.822 1.542 1.75 2.151 2.732-.663-.048-1.444-.197-2.133-.506-.737-.564-1.366-1.31-1.924-2.175.568-.087 1.21-.096 1.906-.051z" color="#000"/><g transform="matrix(.1828 -.15994 .15692 .18496 -152.71 -169.15)" fill="#843600" stroke="#000" stroke-width=".958" stroke-linecap="round" stroke-linejoin="bevel" color="#000"><path d="M44.384 963.41c.106 1.641.063 1.675.063 2.652 0 .976-2.798 1.767-6.25 1.767s-6.25-.791-6.25-1.767c0-.724-.232-1.282-.18-2.503"/><ellipse ry="1.768" rx="6.25" cy="963.6" cx="38.007"/></g><path style="text-indent:0;text-decoration-line:none;text-decoration-style:solid;text-decoration-color:#000;text-transform:none;white-space:normal;isolation:auto;mix-blend-mode:normal;solid-color:#000" d="M2.883 8.862c.133-.056-.03-.078-.31-.15-.43-.141-1.017-.091-1.466.03L1.193 9c.614-.16 1.072-.294 1.69-.137zM2.972 9.496c.382-.174.307-.03.227.07-.756.239-.773.05-1.368.085l-.315-.309c.943.167.927.323 1.456.154zM17.497 17.15c.037.117.152.539.326.64.174.101.332.48.424.579.14.15.375.306.503.567.128.26.112.591.112.591s.41-.163.439-.239c.066-.17-.145-.232-.335-.462-.09-.109-.328-.222-.615-.54-.13-.145-.211-.498-.388-.613-.276-.178-.281-.621-.466-.523zM17.584 16.176c.224.294.411.361.645.528.153.127.246.357.33.467.206.269.11.149.24.557.089.279.37.708.58.89.21.181.12.52.12.52l.518-.493s-.267.011-.473-.166c-.205-.177-.409-.444-.528-.602-.205-.27-.262-.688-.521-1.027-.112-.146-.267-.351-.452-.438-.196-.092-.345-.334-.46-.236zM19.065 17.11c.02.195.256.312.426.391.089.044.29.194.332.231.07.062.143.231.146.359.096.248.005.456.005.456l.455-.654c.002.005-.188.194-.294-.038-.065-.14-.156-.178-.264-.274a1.351 1.351 0 00-.288-.178 19.926 19.926 0 01-.518-.293zM12.936 12.221c-.567.14 1.332 1.62 1.74 1.933.726.558 1.78 1.064 2.083 2.195.39-.408-1.4-1.883-1.794-2.186-.727-.56-2.016-1.4-2.029-1.942zM12.54 10.213c.78.522 1.567 1.159 2.135 1.714.45.439 1.234 2.474 1.487 2.418-.495-.84-.823-1.89-1.538-2.642-.377-.395-1.867-1.575-2.084-1.49zM8.75 7.634c-.217.048.747.623 1.196 1.211.825 1.08 1.556 1.924 2 2.74.212-.021-.53-1.082-.753-1.288-.434-.4-.777-.997-1.137-1.556-.313-.485-.665-.585-1.305-1.107zM9.89 6.727c-.088.145.003.39.157.634.115.184.123.226.714.773.179.165.348.292.58.476.232.183.496.39.54.451.195.27.404.451.609.543.346.154.642.351.661.248-.28-.188-.485-.29-.654-.402a1.753 1.753 0 01-.491-.487c-.101-.14-.312-.3-.546-.484-.233-.184-.47-.384-.62-.474-.643-.385-.976-1.238-.95-1.278zM11.804 9.814c-.297.18.48 1.191.721 1.388.377.305 1.331 1.073 1.551 1.477.21-.274-1.232-1.385-1.456-1.565-.366-.296-.643-.718-.816-1.3z" color="#000"/><path d="M4.629 4.296c.046-.103.234.03.339-.012.145-.059.18-.144.314-.226.088-.054.235-.051.326-.1.076-.042.15-.239.213-.251.063-.013.284-.042.377-.138.066-.07.113-.228.175-.302.082-.097.17-.052.251-.15.065-.077.023-.212.088-.289.03-.036.098-.025.126-.063.086-.12-.077-.388.062-.439.048-.017.106.05.113.1.023.229.135.253-.803 1.293-.544.604-1.405.79-1.405.79s-.214-.129-.176-.213zM5.86 2.416c-.387.335-.806.607-1.125 1.078-.01.058.065.043.188-.016-.03.11-.016.132.027.095.618-.333 1.003-.839 1.222-1.126-.04-.078-.144.035-.224.076-.02-.148-.053-.15-.088-.107z"/></g></svg>