<svg xmlns="http://www.w3.org/2000/svg" xmlns:xlink="http://www.w3.org/1999/xlink" width="25mm" height="20mm" viewBox="0 0 25 20"><defs><pattern id="c" patternTransform="matrix(.89286 0 0 1.3571 162.14 915.36)" xlink:href="#a"/><pattern id="d" patternTransform="matrix(1.2857 0 0 1.1786 197.99 957.62)" xlink:href="#a"/><pattern id="e" patternTransform="matrix(1.0357 0 0 1.6429 177.14 925.71)" xlink:href="#a"/><pattern id="a" width="10" height="10" patternTransform="scale(10)" patternUnits="userSpaceOnUse"><circle cx="2.567" cy=".81" r=".45"/><circle cx="3.048" cy="2.33" r=".45"/><circle cx="4.418" cy="2.415" r=".45"/><circle cx="1.844" cy="3.029" r=".45"/><circle cx="6.08" cy="1.363" r=".45"/><circle cx="5.819" cy="4.413" r=".45"/><circle cx="4.305" cy="4.048" r=".45"/><circle cx="5.541" cy="3.045" r=".45"/><circle cx="4.785" cy="5.527" r=".45"/><circle cx="2.667" cy="5.184" r=".45"/><circle cx="7.965" cy="1.448" r=".45"/><circle cx="7.047" cy="5.049" r=".45"/><circle cx="4.34" cy=".895" r=".45"/><circle cx="7.125" cy=".34" r=".45"/><circle cx="9.553" cy="1.049" r=".45"/><circle cx="7.006" cy="2.689" r=".45"/><circle cx="8.909" cy="2.689" r=".45"/><circle cx="9.315" cy="4.407" r=".45"/><circle cx="7.82" cy="3.87" r=".45"/><circle cx="8.27" cy="5.948" r=".45"/><circle cx="7.973" cy="7.428" r=".45"/><circle cx="9.342" cy="8.072" r=".45"/><circle cx="8.206" cy="9.315" r=".45"/><circle cx="9.682" cy="9.475" r=".45"/><circle cx="9.688" cy="6.186" r=".45"/><circle cx="3.379" cy="6.296" r=".45"/><circle cx="2.871" cy="8.204" r=".45"/><circle cx="4.59" cy="8.719" r=".45"/><circle cx="3.181" cy="9.671" r=".45"/><circle cx="5.734" cy="7.315" r=".45"/><circle cx="6.707" cy="6.513" r=".45"/><circle cx="5.73" cy="9.67" r=".45"/><circle cx="6.535" cy="8.373" r=".45"/><circle cx="4.37" cy="7.154" r=".45"/><circle cx=".622" cy="7.25" r=".45"/><circle cx=".831" cy="5.679" r=".45"/><circle cx="1.257" cy="8.519" r=".45"/><circle cx="1.989" cy="6.877" r=".45"/><circle cx=".374" cy="3.181" r=".45"/><circle cx="1.166" cy="1.664" r=".45"/><circle cx="1.151" cy=".093" r=".45"/><circle cx="1.151" cy="10.093" r=".45"/><circle cx="1.302" cy="4.451" r=".45"/><circle cx="3.047" cy="3.763" r=".45"/></pattern><radialGradient id="b" cx="19.523" cy="1002.1" r="9.931" gradientTransform="matrix(1.5376 -.24896 .0644 .38579 -74.689 618.84)" gradientUnits="userSpaceOnUse"><stop stop-color="#e7e8fa" offset="0"/><stop stop-color="#8e90ae" offset="1"/></radialGradient></defs><g fill-rule="evenodd"><path d="M7.527 5.595c.078.038.798.62 1.947 1.276S12.2 8.256 13.7 9.116c1.5.86 2.876 1.78 4.008 2.429 1.133.65 2.003.896 2.066 1.055.178.102.025 1-.328 1.638-.353.639-.772.775-.95.673-.195-.004-.728-.588-1.864-1.234-1.136-.646-2.714-1.37-4.22-2.227-1.508-.858-2.81-1.86-3.957-2.513-1.147-.654-2.138-.96-2.192-.994z" color="#000" fill="#843600" stroke="#000" stroke-width=".30630792" stroke-linecap="round" stroke-linejoin="bevel"/><g stroke="red" stroke-width=".29"><path d="M32.845 968.99c4.184-2.175 12.824-7.043 15.268-7.912 1.176-.543 8.015-2.963 10.651-2.67l-15.963 8.704z" fill="#35374f" stroke-linejoin="bevel" transform="matrix(.20483 -.04389 .04456 .20798 -46.012 -196.482)"/><path d="M18.355 994.21l24.375-26.655 15.217-8.464c.587-.643 2.079-.456 2.669.084.59.54 1.812 2.882 1.23 3.332l-6.766 15.354-25.357 27.46-5.684-5.913z" color="#000" fill="#35374f" stroke-linecap="round" stroke-linejoin="round" transform="matrix(.20483 -.04389 .04456 .20798 -46.012 -196.482)"/><path d="M9.239 994.84c2.789.234 5.67.006 8.698-.949l24.852-26.85c-1.92-.035-6.246 1.133-9.946 1.987-8.467 8.006-16.075 16.87-23.605 25.812z" fill="#35374f" transform="matrix(.20483 -.04389 .04456 .20798 -46.012 -196.482)"/><path d="M9.544 995.59l8.72-1.407c4.029 3.266 7.275 6.232 10.852 11.077-3.25-.03-6.3.634-9.988-.931-3.924-2.421-6.6-5.377-9.584-8.74z" color="#000" fill="url(#b)" stroke-linecap="round" stroke-linejoin="round" transform="matrix(.20483 -.04389 .04456 .20798 -46.012 -196.482)"/></g><g stroke="red" stroke-width=".29"><path d="M107.62 901.52c4.184-2.175 12.824-7.043 15.268-7.912 1.176-.543 8.015-2.963 10.651-2.67l-15.963 8.704z" fill="url(#c)" stroke-linejoin="bevel" transform="matrix(.20483 -.04389 .04456 .20798 -58.322 -179.168)"/><path d="M93.134 926.74l24.375-26.655 15.217-8.464c.587-.643 2.079-.456 2.669.084.59.54 1.812 2.882 1.23 3.332l-6.766 15.354-25.357 27.46-5.684-5.913z" color="#000" fill="url(#d)" stroke-linecap="round" stroke-linejoin="round" transform="matrix(.20483 -.04389 .04456 .20798 -58.322 -179.168)"/><path d="M84.018 927.37c2.79.234 5.671.006 8.699-.949l24.852-26.85c-1.921-.035-6.247 1.133-9.947 1.987-8.466 8.006-16.074 16.87-23.604 25.812z" fill="url(#e)" transform="matrix(.20483 -.04389 .04456 .20798 -58.322 -179.168)"/></g><path d="M8.703.19c-.77.222-1.526.64-2.136 1.035-.929.704-1.782 1.504-2.678 2.25l.002.006-.008.004C2.533 5.592 1.342 7.75.181 9.92c-.096.203-.023.268.125.395.733.534 1.516 1.012 2.375 1.377.72.029 1.452-.095 2.187-.249.172-.161.285-.383.395-.589C6.356 8.777 7.63 6.666 8.884 4.551c.245-1.172.484-2.344.726-3.516.006.155.062-.523-.187-.608-.17-.211-.461-.278-.72-.236V.189zm-1.197.971C6.975 1.605 6.26 2.267 5.722 2.7c-.476.2-.947.415-1.415.65 1.05-.863 2.528-2.305 3.847-2.736-.164.145-.316.257-.648.548zm1.067-.64c.338-.117.91-.036.743.606-.234 1.102-.41 2.203-.66 3.3C7.332 6.624 6.072 8.854 4.8 11.045c-.827-.392-1.773-1.066-2.594-1.666A282.33 282.33 0 016.03 2.79c.883-.793 1.673-1.463 2.544-2.268zM5.63 2.957C4.424 5.117 3.18 7.18 1.96 9.312c-.457.262-.991.488-1.543.542 1.16-2.108 2.36-4.181 3.615-6.206a15.062 15.062 0 011.598-.692zM2.03 9.59c.819.476 1.762 1.006 2.54 1.642-.56.148-1.244.245-1.898.185-.766-.257-1.493-.693-2.195-1.247.442-.232.968-.42 1.553-.58z" style="text-indent:0;text-decoration-line:none;text-decoration-style:solid;text-decoration-color:#000;text-transform:none;white-space:normal;isolation:auto;mix-blend-mode:normal;solid-color:#000" color="#000"/><g transform="matrix(.10533 -.1831 .18123 .10797 -175.38 -92.234)" fill="#843600" stroke="#000" stroke-width=".958" stroke-linecap="round" stroke-linejoin="bevel" color="#000"><path d="M44.384 963.41c.106 1.641.063 1.675.063 2.652 0 .976-2.798 1.767-6.25 1.767s-6.25-.791-6.25-1.767c0-.724-.232-1.282-.18-2.503"/><ellipse cx="38.007" cy="963.6" rx="6.25" ry="1.768"/></g><path d="M2.795 10.392c.094-.083-.047-.056-.297-.037-.394.006-.862.213-1.198.44l.143.187c.46-.305.8-.544 1.352-.59zM3.047 10.89c.265-.252.244-.113.206-.007-.554.41-.621.258-1.102.455l-.345-.165c.823-.129.853.004 1.24-.284zM17.154 13.094c.064.086.277.4.45.435.17.034.408.301.511.357.157.083.394.146.573.324.18.18.259.456.259.456s.291-.25.294-.32c.007-.159-.184-.151-.406-.287-.105-.064-.332-.09-.658-.272-.147-.082-.314-.35-.492-.393-.277-.07-.406-.433-.53-.3zM16.951 12.269c.267.178.44.18.68.252.162.061.303.224.403.291.246.163.132.092.354.39.152.205.504.48.728.57.225.09.245.394.245.394l.288-.551s-.217.084-.436-.004a3.546 3.546 0 01-.604-.347c-.245-.165-.41-.492-.718-.698-.133-.088-.318-.214-.496-.233-.186-.02-.377-.177-.444-.064zM18.433 12.62c.072.154.3.184.461.201.086.011.293.078.339.097.074.03.182.15.22.254.15.177.133.374.133.374l.19-.667c.003.004-.1.213-.253.052-.093-.097-.178-.103-.294-.151a1.175 1.175 0 00-.287-.065c-.092-.012-.509-.096-.509-.096zM12.013 10.324c-.427.275 1.553.958 1.976 1.1.754.255 1.765.373 2.333 1.22.205-.446-1.682-1.156-2.092-1.294-.757-.256-2.054-.584-2.217-1.026zM11.121 8.784c.789.209 1.616.511 2.24.808.493.234 1.712 1.687 1.905 1.57-.644-.551-1.21-1.323-2.01-1.74-.421-.22-1.98-.77-2.135-.638zM7.277 7.729c-.166.1.79.302 1.325.66.983.656 1.822 1.144 2.417 1.69.168-.077-.741-.74-.982-.847-.47-.207-.92-.602-1.374-.96-.394-.31-.712-.294-1.386-.543zM7.959 6.662c-.032.144.112.32.307.477.147.119.165.152.805.435.194.085.37.142.612.228.243.086.518.18.572.22.236.167.46.256.653.274.329.03.628.108.614.018-.284-.076-.48-.102-.651-.147a1.525 1.525 0 01-.541-.261c-.123-.087-.342-.159-.585-.245-.244-.086-.495-.184-.645-.216-.637-.135-1.152-.743-1.141-.783zM10.403 8.662c-.193.232.73.845.985.94.396.144 1.397.507 1.692.778.095-.285-1.404-.793-1.639-.878-.384-.14-.731-.41-1.038-.84z" style="text-indent:0;text-decoration-line:none;text-decoration-style:solid;text-decoration-color:#000;text-transform:none;white-space:normal;isolation:auto;mix-blend-mode:normal;solid-color:#000" color="#000"/><path d="M2.945 6.144c.01-.098.201-.042.276-.106.103-.09.107-.169.194-.274.057-.07.18-.109.24-.175.052-.055.057-.238.105-.266.048-.028.222-.114.27-.22.036-.076.03-.219.06-.297.04-.103.125-.091.165-.195.03-.081-.041-.18-.01-.262.015-.038.074-.048.086-.087.037-.123-.172-.298-.072-.379.034-.028.101.012.121.05.084.182.182.17-.296 1.29-.278.65-.934 1.047-.934 1.047s-.212-.046-.205-.126zM3.428 4.25c-.224.385-.491.727-.621 1.204.008.05.065.017.15-.066.006.1.023.113.049.07.414-.448.588-.972.688-1.27-.055-.053-.109.069-.163.125-.059-.116-.086-.108-.103-.063z"/></g></svg>