<?xml version="1.0" encoding="UTF-8" standalone="no"?>
<svg
   xmlns:dc="http://purl.org/dc/elements/1.1/"
   xmlns:cc="http://creativecommons.org/ns#"
   xmlns:rdf="http://www.w3.org/1999/02/22-rdf-syntax-ns#"
   xmlns:svg="http://www.w3.org/2000/svg"
   xmlns="http://www.w3.org/2000/svg"
   id="svg2881"
   version="1.1"
   viewBox="0 0 52 42"
   height="42mm"
   width="52mm">
  <defs
     id="defs2875" />
  <metadata
     id="metadata2878">
    <rdf:RDF>
      <cc:Work
         rdf:about="">
        <dc:format>image/svg+xml</dc:format>
        <dc:type
           rdf:resource="http://purl.org/dc/dcmitype/StillImage" />
        <dc:title></dc:title>
      </cc:Work>
    </rdf:RDF>
  </metadata>
  <g
     transform="translate(0,-255)"
     id="layer1">
    <g
       transform="matrix(0.88798852,0,0,0.87704933,-227.81029,118.14567)"
       id="g1101">
      <g
         id="g1446">
        <path
           id="path996"
           d="m 277.07183,202.68422 c 0,0 -3.37713,-3.77612 -11.20389,-2.03737 -1.50666,0.7946 -3.71499,0.0474 -2.14906,-1.79929 2.00901,-3.19868 -4.33957,1.4879 -3.80062,-1.51014 0.16605,-1.17365 2.95598,-3.92782 0.27224,-2.66556 -1.07151,0.66437 -3.36177,1.42398 -2.34228,-0.79345 1.50804,-4.15604 5.97368,-6.28621 10.14172,-6.66189 0.45409,-0.59046 0.19077,-1.84254 0.38231,-2.67808 0.62136,-5.17645 0.99886,-10.45804 2.5536,-15.45849 1.86961,-5.70924 6.62772,-10.66351 12.72531,-11.6046 2.81391,-0.65307 5.81048,0.19875 8.3992,1.32842 5.57563,2.67458 8.72129,8.74452 9.66967,14.64646 0.87785,4.5232 1.15828,9.1297 1.75328,13.69096 3.8321,0.55536 8.07816,2.09138 9.77373,5.88486 1.2767,1.29249 0.58718,3.46186 -1.25584,1.93202 -1.17605,-0.58156 -2.65224,-0.92427 -1.30578,0.5326 1.82544,1.83082 0.5824,3.77254 -1.76978,2.50542 -1.42765,-0.69599 -2.26219,-0.45119 -0.89373,0.92087 1.68596,3.4296 -3.08464,1.268 -4.71624,1.73665 -1.15954,0.38453 -1.06109,2.6231 -2.94933,1.81356 -1.61329,0.17901 -1.75387,0.65032 -3.07941,-0.74223 -2.17321,-0.44601 -4.72062,-0.4079 -6.31978,1.13075 -0.24728,-1.20432 -5.77788,-0.45325 -7.03728,-0.0841 0,0 -3.89254,-0.6623 -6.84804,-0.0874 z"
           style="fill:#000000;stroke-width:0.26458335" />
        <path
           id="path990"
           d="m 291.6324,200.63786 c 3.19205,-0.32198 6.44053,-0.48491 9.55625,-1.26741 -2.26428,-1.72503 -5.29909,-3.42848 -5.41578,-6.6597 -0.1002,-2.96575 2.64351,-5.19289 5.42606,-5.43085 1.90142,-1.22648 0.12087,-4.4993 0.3568,-6.51383 -0.80078,-6.28336 -1.42151,-13.31509 -6.16454,-18.02486 -2.21553,-2.61705 -5.72888,-3.44461 -8.91495,-4.19741 -6.11974,-0.45488 -11.67174,4.01006 -13.88405,9.51541 -1.98255,4.94966 -2.32427,10.36394 -2.97838,15.60491 0.23689,1.01173 -0.76697,3.01174 0.21834,3.51541 2.25899,0.50777 5.17261,1.23584 5.60407,3.90179 0.52189,2.60367 -0.44337,5.29239 -2.81149,6.65051 -0.9755,0.6736 -3.45938,1.84428 -0.8475,1.93347 4.6172,0.8027 9.31889,1.15588 13.9988,1.30655 1.95578,-0.0293 3.90693,-0.18508 5.85637,-0.33399 z"
           style="fill:#784421;fill-opacity:1;stroke-width:0.26458335" />
        <path
           id="path988"
           d="m 283.97403,186.12693 c -0.71649,-2.23357 -3.24314,-4.42517 -5.07156,-3.99783 1.3954,-0.75059 0.47168,-1.97224 0.0107,-2.44441 1.81865,-0.70731 -1.23139,-2.66912 1.09985,-2.18631 1.9507,-1.52951 4.44022,-2.40452 6.93967,-2.02977 2.00477,-0.009 4.94621,2.38301 5.44547,2.40899 -1.63561,1.13185 1.43537,2.00039 -0.2944,2.45626 -1.30112,1.20195 2.24249,2.57722 -0.49998,1.77442 -3.04191,0.13891 -2.96677,3.88224 -5.39724,4.86417 -0.86933,0.17305 -1.76253,-0.0462 -2.23252,-0.84552 z"
           style="fill:#000000;stroke-width:0.26458335" />
        <path
           id="path986"
           d="m 285.36451,184.95986 c -0.0332,-2.02766 -2.69682,-0.77215 -0.84409,0.58372 0.53202,0.89134 1.03208,0.1038 0.84409,-0.58372 z"
           style="fill:#ffd5d5;stroke-width:0.26458335" />
        <path
           id="path984"
           d="m 287.06218,185.48903 c 2.08138,-1.74213 -1.55857,-2.40878 -1.07753,-0.15533 -0.0749,0.86732 0.75182,0.70168 1.07753,0.15533 z"
           style="fill:#ffd5d5;stroke-width:0.26458335" />
        <path
           id="path982"
           d="m 288.66433,182.673 c 0.99099,-0.45173 2.69722,-1.17865 1.01748,-1.94275 2.02417,0.42119 1.24987,-0.72305 0.28472,-0.96635 2.07696,-0.13454 0.75814,-1.04062 -0.42188,-0.65475 0.94495,-0.57784 1.56514,-1.20638 0.22427,-1.81464 -2.58079,-1.62393 -6.95174,-1.67778 -8.8084,0.94025 1.13096,1.07814 0.7234,0.52414 -0.53308,0.75344 -0.31685,0.96689 2.71126,0.61306 0.66433,1.08957 -1.98875,0.75587 2.18964,0.33116 0.22259,1.31932 1.30755,2.04968 4.57743,1.71229 6.77991,1.45289 l 0.30742,-0.0812 0.26264,-0.0958 z"
           style="fill:#e9c6af;fill-opacity:1;stroke-width:0.26458335" />
        <path
           id="path980"
           d="m 284.64644,180.07422 c -2.82894,-1.19917 -0.74686,-3.9278 1.64249,-3.07309 3.62352,0.002 1.11377,4.32302 -1.36459,3.19284 z"
           style="fill:#211b14;stroke-width:0.26458335" />
        <path
           id="path978"
           d="m 285.56123,178.25608 c -0.0239,-1.9098 -2.85263,0.79672 -0.31531,0.20314 l 0.31527,-0.20314 z"
           style="fill:#ffd5d5;stroke-width:0.26458335" />
        <path
           id="path976"
           d="m 275.44968,177.30839 c -2.02349,-0.83389 -1.14446,-3.78089 0.72005,-4.21152 -0.93878,-0.83528 -2.56086,-1.35031 -3.26094,-2.50997 0.76521,-2.14747 3.08582,-4.3812 4.87686,-1.73726 1.63904,0.8697 4.00007,5.091 5.3865,1.95029 -0.0768,1.73039 -1.5495,6.67639 -3.84434,4.58111 -1.49504,-1.73291 -0.40142,2.8578 -2.83117,2.15113 -0.37914,0.0187 -0.69776,-0.0996 -1.04696,-0.22378 z"
           style="fill:#000000;stroke-width:0.26458335" />
        <path
           id="path974"
           d="m 276.3757,175.0005 c -1.20575,-3.08932 -2.01361,2.44407 0,0 z"
           style="fill:#ffd5d5;stroke-width:0.26458335" />
        <path
           id="path972"
           d="m 293.656,176.93597 c -0.88667,-1.16425 -0.66447,-2.88734 -1.97516,-1.14116 -2.11781,0.66244 -3.25783,-3.43069 -3.22548,-4.99647 1.32447,3.70989 3.7398,-1.51914 5.66316,-2.26518 1.61106,-2.82615 5.07394,1.00627 4.05985,2.65518 -0.95328,0.8735 -4.0913,1.79907 -1.55752,2.71253 2.0802,1.90056 -0.94769,4.93032 -2.96485,3.0351 z"
           style="fill:#000000;stroke-width:0.26458335" />
        <path
           id="path970"
           d="m 295.0534,175.18945 c 0.0435,-2.42047 -2.35037,0.18782 -0.44308,0.42286 l 0.25929,-0.14562 z"
           style="fill:#ffd5d5;stroke-width:0.26458335" />
        <g
           id="g1032">
          <path
             style="fill:#e9c6af;stroke-width:0.26458335"
             d="m 267.15844,199.04762 c 2.35378,-0.47986 0.0655,-5.24627 -0.98777,-1.81876 -0.64203,0.82075 -2.42712,3.16869 -0.0473,2.1478 l 0.48154,-0.14624 z"
             id="path968" />
          <path
             style="fill:#784421;stroke-width:0.26458335"
             d="m 271.21805,197.03793 c 2.30618,-1.09752 3.75481,-3.82694 2.81339,-6.28544 -2.16629,-2.89191 -6.44234,-2.71097 -9.51249,-1.55999 -1.23359,0.35325 -1.76787,0.76328 -0.28953,1.26457 2.8976,1.37887 4.36992,4.53017 4.86901,7.54637 0.74663,0.21631 1.47507,-0.65898 2.11962,-0.96551 z"
             id="path964" />
          <path
             style="fill:#e9c6af;stroke-width:0.26458335"
             d="m 264.84333,195.68161 c 2.35161,-0.21428 2.31339,-3.13921 0.22797,-3.21571 -1.28057,1.20595 -3.29556,2.73338 -3.32938,4.48852 1.12215,-0.10462 2.09391,-0.8257 3.10141,-1.27281 z"
             id="path960" />
          <path
             style="fill:#e9c6af;stroke-width:0.26458335"
             d="m 262.12129,192.5558 c 1.96908,-0.55256 2.30927,-1.76458 0.12718,-2.02576 -1.07484,-0.36609 -1.57817,1.48388 -2.41294,1.96286 -1.98434,2.26148 1.57705,0.3886 2.28576,0.0629 z"
             id="path956" />
        </g>
        <g
           id="g1026">
          <path
             style="fill:#e9c6af;stroke-width:0.26458335"
             d="m 306.58136,199.42677 c -0.41821,-1.72312 -3.36232,-5.57709 -3.11677,-1.62549 -0.51598,1.10969 0.42428,1.25746 1.29941,1.44826 0.4842,-0.004 1.64172,0.83206 1.81736,0.17723 z"
             id="path966" />
          <path
             style="fill:#784421;stroke-width:0.26458335"
             d="m 302.68249,197.08243 c 0.65148,-2.95689 2.55652,-5.96129 5.43768,-7.09777 -1.43228,-1.48723 -4.00553,-1.60669 -6.03374,-1.52053 -2.35307,0.1034 -5.40192,1.58032 -4.89499,4.3832 0.24864,2.53946 2.68021,4.03382 4.69196,5.17614 0.64191,0.43712 0.71071,-0.58702 0.79909,-0.94104 z"
             id="path962" />
          <path
             style="fill:#e9c6af;stroke-width:0.26458335"
             d="m 310.02094,196.84535 c -0.99353,-1.53084 -2.40594,-4.69069 -4.48279,-4.16566 -1.37435,1.09048 -1.04156,2.25228 0.57383,2.76042 1.16311,0.3993 2.82349,1.8148 3.90896,1.40524 z"
             id="path958" />
          <path
             style="fill:#e9c6af;stroke-width:0.26458335"
             d="m 312.13761,193.47528 c -0.47191,-2.03093 -3.59891,-4.1822 -4.59668,-1.88738 1.39078,0.71147 3.11649,1.96805 4.59668,1.88738 z"
             id="path850" />
        </g>
      </g>
    </g>
  </g>
</svg>
