<svg xmlns="http://www.w3.org/2000/svg" viewBox="0 0 56 42" height="42mm" width="56mm"><path d="M26.99 2.769c.843.001 1.647.21 2.33.766.965 2.291 3.07.897 4.315 1.998-.434 1.718.207 3.697 1.726 4.494 1.915.203 2.612 1.713 3.067 3.772.945 3.668 1.335 7.476 1.694 11.286-.014 1.85.92 4.697-.069 5.98-2.86 4.271-7.212 7.28-11.857 7.405-4.807.569-11.519-2.177-14.923-6.252.292-4.54.641-9.076 1.315-13.564.665-6.047 3.327-12.335 8.258-14.81 1.23-.506 2.74-1.078 4.144-1.075z" fill="#784421"/><path d="M33.94 1.014c-.204-.007-.458.093-.766.34-.917 3.13-2.74-1.058-4.226-.005-2.482-.056-5.08.031-7.317 1.506-5.02 2.87-7.687 9.482-8.334 15.818-.822.14-1.506-3.07-2.47-4.036-.648-1.879-3.03-3.383-2.869-.254.135 2.665-.984-.084-1.555-.837-.798-2.075-2.33-.868-2.069 1.056-.304 3.986-1.422-3.213-2.726-.776-1.412 3.963-.038 8.584 2.39 11.529 1.901 2.502 5.193 4.373 7.92 2.722.215 1.015.845 4-.016 5.217 5.169 3.977 2.692 1.564 5.866 4.462 2.702.565 6 1.12 7.326 2.836l1.982-.534c1.935-.257 1.524-.415 3.688.956.96-2.368 4.275-4.435 5.881-2.581.713 2.23 1.957-3.98 3.236-2.763l2.054-7.808c1.904 1.851 4.5.681 6.337-.7 3.113-2.522 5.332-7.072 4.64-11.641.122-2.204-1.771-2.935-2.203-.606-.927 2.57-.792.012-1.115-1.237-.5-3.12-2.407.621-3.126 1.688-.332-1.435-1.037-4.651-2.546-1.733-1.32 1.094-2.073 4.808-3.128 4.883-.433-2.79-.959-5.601-2.123-8.11-.1-1.77-3.53-3.95-1.483-5.009.914-2.71-2.104-1.166-2.978-1.431.572-.875.616-2.92-.27-2.952zM26.99 2.77c.843.002 1.647.21 2.33.766.965 2.291 3.07.897 4.315 1.998-.434 1.718.207 3.697 1.726 4.494 1.915.203 2.612 1.713 3.067 3.772.945 3.668 1.335 7.476 1.694 11.286-.014 1.85.92 4.697-.069 5.98-2.86 4.271-7.212 7.28-11.857 7.405-4.807.569-11.519-2.177-14.923-6.252.292-4.54.641-9.076 1.315-13.564.665-6.047 3.327-12.335 8.258-14.81 1.23-.506 2.74-1.078 4.144-1.075z"/><path d="M11.03 26.487c1.04-.777 1.456-2.337 1.335-3.738-.113-1.332-.497-2.615-.957-3.828-.244-.753-.727.312-1.046.494-.84.77-1.734 1.496-2.727 1.956-.555.088-1.068.408-1.639.4-.868.061-1.766.064-2.593-.294-.047.49.509 1.128.759 1.61C5.3 24.778 6.807 26.19 8.555 26.85c.82.276 1.752.21 2.476-.364z" fill="#784421"/><path d="M4.33 20.175c-.388-1.207-.942-2.332-1.48-3.452-.09-.271-.32-1.053-.514-.41-.177.818-.03 1.676.043 2.501.002.673.38 1.172.923 1.318.267.06.913.553 1.027.043zM7.33 20.113c.731-.127.357-.932.175-1.44-.47-1.35-.978-2.724-1.777-3.848-.418-.03-.272.985-.34 1.376-.003 1.279.019 2.583.307 3.823.167.682.88.347 1.294.229.115-.042.229-.09.342-.14zM9.988 18.154c.313-.395 1.018-.893.55-1.482-.353-.66-.677-1.383-1.193-1.885-.54-.178-.342.91-.404 1.297 0 .942-.045 1.895.065 2.828.37.127.677-.547.982-.758z" fill="#e9c6af"/><path d="M45.686 26.772c1.235-.424 2.306-1.33 3.19-2.423.671-.822 1.333-1.676 1.83-2.663.136-.543-.562.163-.81.056-1.023.115-2.087.132-3.068-.282-.494-.03-.776-.434-1.218-.569a8.746 8.746 0 01-2.296-1.923c-.196-.27-.603-.674-.653-.055-.425 1.235-.935 2.487-.901 3.856 0 .885-.087 1.857.382 2.616.42.702 1.003 1.349 1.72 1.567.606.12 1.239.032 1.824-.18z" fill="#784421"/><path d="M48.289 20.298c.27-.728.295-1.55.382-2.332.078-.98.11-1.994-.119-2.948-.373-.431-.629.63-.85.924-.512 1.117-1.045 2.248-1.328 3.483-.1.63.58.75.945.915.307.077.702.218.97-.042zM50.9 20.105c.57-.114.776-.812.847-1.41.097-.829.22-1.692.075-2.52-.457-.208-.63.745-.865 1.103-.384.93-.898 1.8-1.14 2.801-.05.574.842.074 1.083.026zM45.124 16.666c-.038-.66-.033-1.336-.164-1.98-.426.238-.712.777-1.028 1.193-.287.451-.806 1.104-.353 1.648.376.482.778.963 1.255 1.3.522-.057.256-1.045.311-1.513a89.955 89.955 0 00-.02-.648z" fill="#e9c6af"/><path d="M37.197 9.708c.353-.822-.66-.844-1.043-1.13-.568-.25-1-.798-1.21-1.471-.28-.586.154-1.18.545-1.495.346-.413.887-.277 1.255-.548.34-.722-.477-.893-.894-.665-.79.14-1.487.862-1.639 1.81-.181.944.07 2.003.725 2.608.557.551 1.237 1.07 1.985 1.051a.4.4 0 00.276-.16zM33.037 4.161c.56-.526 1.042-1.318 1.066-2.193-.211-.797-.735.039-.863.449-.362.548-.802 1.24-1.454 1.198-.783.01-1.37-.74-1.712-1.505-.265-.754-.996-.081-.615.503.313.827.87 1.636 1.636 1.861.644.094 1.36.054 1.942-.313z" fill="#c83737"/><path d="M19.909 36.26c-.288-.211-.344-.756-.164-1.585.09-.418.324-1.543.519-2.5.413-2.03.965-4.311 1.126-4.654.147-.313.043-.496-.282-.496-.278 0-.432-.276-.33-.591.033-.104.26-.346.502-.538.385-.303.433-.396.37-.714-.097-.49-.147-.539-.604-.589-.353-.039-.393-.083-.393-.444 0-.34.06-.425.386-.55.347-.134.538-.403.56-.791.004-.075-.169-.25-.385-.389-.41-.264-.47-.456-.276-.888.14-.313.47-.332.834-.048.252.197.293.19.614-.092.366-.323.438-.52.19-.52-.083 0-.389-.248-.678-.551-.289-.304-.54-.53-.558-.502-.018.027-.122.32-.23.652-.238.73-.333.874-.894 1.36-.95.822-2.442.31-2.984-1.023-.485-1.195-.1-2.714.825-3.255.428-.25.487-.183-1.637-1.876-.23-.184-.449-.445-.485-.58-.178-.668 2.03-3.856 2.669-3.856.164 0 .34.08.389.18.05.099.367.41.707.692.34.281.667.582.729.668.062.086.541.582 1.066 1.1.524.52 1.23 1.281 1.567 1.694.337.412.651.749.698.749.091 0 .652-1.344.652-1.564 0-.253.43-.598.692-.554.286.049.288.078.102 1.315-.207 1.378-.859 3.04-1.676 4.274-.26.391-.45.738-.422.77.027.033.243-.091.48-.276.909-.707 1.756-.943 3.404-.95 1.683-.006 2.476.214 3.59.998.662.465.748.494.477.158a10.148 10.148 0 01-1.627-2.9c-.785-2.221-.856-3.504-.186-3.39.19.033.297.176.382.514.142.566.593 1.605.697 1.605.04 0 .507-.498 1.035-1.107a52.768 52.768 0 011.635-1.796c.733-.752.746-.883.145-1.418-.398-.355-.691-.139-.875.645-.145.616-.67 1.268-1.023 1.268-.088 0-.348-.185-.578-.41-.344-.34-.418-.5-.419-.904-.002-1.644 1.193-3.233 2.432-3.234.766 0 1.487.384 2.108 1.125.323.384.643.632.89.687.814.182 2.772 3.2 2.602 4.01-.035.167-.203.371-.373.452-.17.081-.461.267-.646.413a7.818 7.818 0 01-.505.371c-.481.3-1.01.74-1.01.84 0 .063.14.193.309.29.17.096.472.467.673.824.472.841.491 1.582.065 2.486-.64 1.357-1.931 1.762-2.957.927-.558-.454-.895-1.029-.895-1.526 0-.514-.205-.517-.677-.008-.245.264-.483.48-.529.482-.046 0-.16.06-.252.13-.141.11-.117.184.153.462.3.311.342.32.64.137.551-.34 1.002-.18 1.002.356 0 .216-.418.706-.696.817-.085.034-.09.167-.014.437.077.276.211.42.464.498.242.075.377.214.423.434.092.433-.017.606-.38.608-.417.003-.568.146-.643.607-.056.353-.015.426.391.7.372.249.455.376.455.702 0 .288-.054.397-.196.399-.429.005-.507.19-.312.746.1.286.225.73.278.99.053.258.23 1.041.394 1.74.163.699.366 1.602.45 2.007l.331 1.57c.43 2.024.219 2.405-1.244 2.248a12.188 12.188 0 01-1.384-.226c-.657-.171-8.43-.171-9.087 0-.817.212-2.392.308-2.596.158z"/><path d="M22.617 34.563c.761-.292 7.308-.271 9.143.03.724.118.607-.034-.56-.728-1.338-.794-2.45-1.088-4.114-1.087-1.743 0-2.91.314-4.326 1.158-1.196.713-1.275 1.062-.143.627z" fill="#c83737"/><path d="M26.688 30.06c.082-.255 0-1.446-.108-1.57-.051-.059-.281-.148-.512-.199-.332-.072-.434-.046-.49.126-.094.294.123.881.516 1.395.351.458.506.523.594.248zM28.167 29.514c.53-.917.5-1.233-.113-1.178-.555.05-.725.308-.725 1.1 0 1.058.258 1.082.838.078z" fill="#fff"/><path d="M27.992 27.285c.952-.184 1.853-.571 2.322-.997.433-.395.481-.661.156-.868-.305-.195-.287-.536.028-.533.139 0 .326.057.415.124.215.162.577-.072.497-.322-.039-.12-.26-.207-.585-.232l-.523-.04-.034-.704c-.031-.649-.012-.713.255-.834 1.072-.486-.527-1.86-2.662-2.287-.755-.151-.996-.146-1.82.044-1.468.337-3.072 1.384-2.907 1.896.033.103.208.26.388.35.285.14.329.232.329.69 0 .827-.142 1.033-.657.95-.476-.076-.684.115-.466.428.096.138.204.154.41.061.407-.185.713-.155.713.07 0 .107-.104.262-.231.343a.433.433 0 00-.197.43c.07.567 2.2 1.529 3.457 1.56.216.006.716-.052 1.112-.129z" fill="#e9c6af"/><path d="M26.286 24.68c-1.14-.5-1.787-1.675-1.468-2.666.153-.473.938-.781 2.006-.787 1.292-.006 1.763.108 2.184.531.438.439.452 1.02.044 1.737-.36.632-.602.852-1.268 1.15-.614.274-.933.281-1.498.034z"/><path d="M26.783 22.61l.265-.267-.264-.267c-.51-.516-1.463.093-1.003.641.205.245.707.192 1.002-.107z" fill="#ffd5d5"/><path d="M23.261 23.585c.046-.167-.492-.398-.607-.26-.036.042-.034.174.004.292.08.246.533.222.603-.032zM31.424 23.549c0-.239-.37-.35-.53-.16a.283.283 0 00-.033.288c.111.215.563.112.563-.128z" fill="#e9c6af"/><path d="M18.934 19.58c.234-.253.268-.72.07-.956-.226-.27-.632-.185-.83.174-.17.31-.17.359 0 .669.214.388.47.426.76.113zM34.753 19.58c.24-.26.257-.556.049-.882-.188-.295-.495-.3-.76-.013-.255.275-.262.554-.02.872.23.303.464.31.73.023z" fill="#ffd5d5"/><path d="M31.629 12.404c.157-.604.517-1.199 1.028-1.422.587-.027 1 .595 1.38 1.045.2.481 1.014 1.04 1.131.24-.373-.739-.913-1.356-1.484-1.88-.523-.302-1.158-.26-1.71-.087-.53.325-.798 1.045-.978 1.69-.221.437.036 1.334.5.819a1.27 1.27 0 00.133-.405z" fill="#c83737"/><path d="M28.18 10.694c-.487-.487-.185-1.225.16-1.68.25-.492.747-1.013.563-1.639-.362-.604-1.065-.501-1.612-.571-.542-.094-1.127-.78-.855-1.46.396-.722 1.208-.923 1.876-.707.75.206 1.534.454 2.154 1.019.754.955.674 2.465.187 3.562-.305.68-.7 1.334-1.225 1.788-.409.18-.981.173-1.248-.312z"/><path d="M29.37 10.07c.716-.857 1.14-2.127.898-3.33-.355-1-1.312-1.444-2.165-1.536-.377-.142-1.444.106-.93.722.404.166.857.072 1.26.279.498.212 1.145.509 1.226 1.22-.015 1.003-.748 1.693-1.028 2.581-.006.596.558.435.739.063z" fill="#c83737"/></svg>