<svg xmlns="http://www.w3.org/2000/svg" viewBox="0 0 52 42" height="42mm" width="52mm"><path d="M18.226 40.91s-2.999-3.312-9.949-1.787c-1.338.697-3.298.041-1.908-1.578 1.784-2.806-3.853 1.305-3.375-1.325.148-1.029 2.625-3.445.242-2.338-.952.583-2.985 1.25-2.08-.695 1.34-3.645 5.305-5.514 9.006-5.843.403-.518.17-1.616.34-2.349.55-4.54.886-9.172 2.267-13.558 1.66-5.007 5.885-9.352 11.3-10.178 2.498-.572 5.16.175 7.458 1.165 4.951 2.346 7.744 7.67 8.587 12.846.78 3.967 1.028 8.007 1.557 12.008 3.402.487 7.173 1.834 8.678 5.161 1.134 1.134.522 3.036-1.115 1.695-1.044-.51-2.355-.811-1.16.467 1.622 1.605.518 3.308-1.57 2.197-1.268-.61-2.01-.396-.794.808 1.497 3.008-2.74 1.112-4.188 1.523-1.03.337-.943 2.3-2.62 1.59-1.432.157-1.557.57-2.734-.65-1.93-.392-4.192-.358-5.612.991-.22-1.056-5.13-.397-6.249-.074 0 0-3.456-.58-6.08-.076z"/><path d="M31.156 39.115c2.834-.282 5.719-.425 8.486-1.112-2.01-1.513-4.706-3.007-4.81-5.84-.088-2.602 2.348-4.555 4.819-4.764 1.688-1.075.107-3.946.317-5.713-.711-5.51-1.263-11.678-5.474-15.808-1.968-2.296-5.087-3.021-7.917-3.682-5.434-.399-10.364 3.517-12.329 8.346-1.76 4.341-2.063 9.09-2.644 13.686.21.888-.681 2.642.194 3.083 2.006.446 4.593 1.084 4.976 3.422.463 2.284-.394 4.642-2.497 5.833-.866.591-3.072 1.618-.752 1.696 4.1.704 8.275 1.014 12.43 1.146 1.737-.026 3.47-.162 5.2-.293z" fill="#784421"/><path d="M24.355 26.388c-.636-1.959-2.88-3.88-4.503-3.506 1.239-.658.419-1.73.01-2.144 1.614-.62-1.094-2.34.976-1.917 1.732-1.342 3.943-2.11 6.162-1.78 1.78-.009 4.393 2.09 4.836 2.112-1.452.993 1.275 1.755-.262 2.154-1.155 1.055 1.992 2.26-.443 1.557-2.702.121-2.635 3.405-4.793 4.266-.772.152-1.565-.04-1.983-.742z"/><path d="M25.59 25.365c-.03-1.779-2.395-.678-.75.512.473.781.917.09.75-.512zM27.098 25.829c1.848-1.528-1.384-2.113-.957-.137-.067.761.667.616.957.137z" fill="#ffd5d5"/><path d="M28.52 23.359c.88-.396 2.395-1.034.904-1.704 1.797.37 1.11-.634.253-.848 1.844-.118.673-.912-.375-.574.84-.507 1.39-1.058.2-1.591-2.293-1.425-6.174-1.472-7.823.824 1.005.946.643.46-.473.661-.281.848 2.408.538.59.956-1.766.663 1.944.29.198 1.157 1.16 1.798 4.064 1.502 6.02 1.274l.273-.071.233-.084z" fill="#e9c6af"/><path d="M24.952 21.08c-2.512-1.052-.663-3.445 1.459-2.696 3.218.002.989 3.792-1.212 2.8z" fill="#211b14"/><path d="M25.765 19.485c-.021-1.675-2.533.699-.28.178l.28-.178z" fill="#ffd5d5"/><path d="M16.786 18.654c-1.797-.731-1.016-3.316.64-3.694-.834-.732-2.275-1.184-2.896-2.201.68-1.884 2.74-3.843 4.33-1.524 1.456.763 3.552 4.465 4.783 1.71-.068 1.518-1.376 5.856-3.413 4.018-1.328-1.52-.357 2.507-2.514 1.887-.337.017-.62-.087-.93-.196z"/><path d="M17.608 16.63c-1.07-2.71-1.788 2.143 0 0z" fill="#ffd5d5"/><path d="M32.953 18.327c-.787-1.02-.59-2.532-1.754-1-1.88.58-2.893-3.01-2.864-4.383 1.176 3.254 3.32-1.332 5.029-1.986 1.43-2.48 4.505.882 3.605 2.328-.847.766-3.633 1.578-1.383 2.38 1.847 1.666-.842 4.323-2.633 2.661z"/><path d="M34.194 16.795c.038-2.122-2.087.165-.394.371l.23-.127z" fill="#ffd5d5"/><path d="M9.423 37.72c2.09-.42.059-4.601-.877-1.595-.57.72-2.155 2.78-.042 1.884l.428-.128z" fill="#e9c6af"/><path d="M13.028 35.958c2.048-.963 3.334-3.357 2.498-5.513-1.923-2.536-5.72-2.378-8.446-1.368-1.096.31-1.57.67-.258 1.109 2.573 1.21 3.88 3.973 4.324 6.618.663.19 1.31-.578 1.882-.846z" fill="#784421"/><path d="M7.368 34.768c2.088-.188 2.054-2.753.202-2.82-1.137 1.057-2.926 2.397-2.956 3.936.996-.091 1.859-.724 2.754-1.116zM4.95 32.027c1.749-.485 2.051-1.548.113-1.777-.954-.321-1.401 1.301-2.142 1.721-1.762 1.984 1.4.341 2.03.056z" fill="#e9c6af"/><g><path d="M44.43 38.053c-.37-1.511-2.985-4.892-2.767-1.426-.458.973.377 1.103 1.154 1.27.43-.003 1.457.73 1.613.156z" fill="#e9c6af"/><path d="M40.968 35.997c.579-2.594 2.27-5.229 4.829-6.225-1.272-1.305-3.557-1.41-5.358-1.334-2.09.09-4.797 1.386-4.347 3.844.221 2.228 2.38 3.538 4.167 4.54.57.383.63-.515.71-.825z" fill="#784421"/><path d="M47.485 35.789c-.882-1.343-2.137-4.114-3.98-3.654-1.221.957-.926 1.976.509 2.421 1.032.35 2.507 1.592 3.47 1.233zM49.364 32.833c-.419-1.781-3.195-3.668-4.081-1.655 1.235.624 2.767 1.726 4.081 1.655z" fill="#e9c6af"/></g></svg>