<?xml version="1.0" encoding="UTF-8" standalone="no"?>
<svg
   xmlns:dc="http://purl.org/dc/elements/1.1/"
   xmlns:cc="http://creativecommons.org/ns#"
   xmlns:rdf="http://www.w3.org/1999/02/22-rdf-syntax-ns#"
   xmlns:svg="http://www.w3.org/2000/svg"
   xmlns="http://www.w3.org/2000/svg"
   id="svg2188"
   version="1.1"
   viewBox="0 0 62 42"
   height="42mm"
   width="62mm">
  <defs
     id="defs2182" />
  <metadata
     id="metadata2185">
    <rdf:RDF>
      <cc:Work
         rdf:about="">
        <dc:format>image/svg+xml</dc:format>
        <dc:type
           rdf:resource="http://purl.org/dc/dcmitype/StillImage" />
        <dc:title></dc:title>
      </cc:Work>
    </rdf:RDF>
  </metadata>
  <g
     transform="translate(0,-255)"
     id="layer1">
    <g
       style="opacity:1"
       transform="matrix(0.78058113,0,0,0.80663264,-259.54606,132.38554)"
       id="g1358">
      <path
         style="opacity:1;fill:#784421;fill-opacity:1;stroke:none;stroke-width:4.092062;stroke-linejoin:miter;stroke-miterlimit:4;stroke-dasharray:none;stroke-opacity:1"
         d="m 371.87393,155.44219 c 1.24561,0.002 2.4351,0.26181 3.44475,0.94981 1.4256,2.84089 4.53863,1.11277 6.37741,2.47685 -0.64143,2.1299 0.30638,4.58321 2.55177,5.57124 2.83131,0.25145 3.86154,2.12454 4.53358,4.67672 1.39698,4.54716 1.97329,9.26762 2.5037,13.99139 -0.0196,2.29258 1.36118,5.82272 -0.10128,7.41402 -4.2287,5.29466 -10.66041,9.02463 -17.52658,9.17928 -7.10692,0.70518 -17.02766,-2.69866 -22.05911,-7.74991 0.43143,-5.62926 0.947,-11.25236 1.94305,-16.81551 0.98277,-7.49666 4.91884,-15.29308 12.2075,-18.36012 1.817,-0.62779 4.04921,-1.33767 6.12521,-1.33377 z"
         id="rect1277" />
      <path
         style="fill:#000000;stroke-width:0.62680125"
         d="m 1444.3379,579.27734 c -1.1421,-0.0338 -2.5606,0.43519 -4.2832,1.58985 -5.1196,14.67073 -15.3044,-4.95523 -23.6094,-0.0234 -13.8666,-0.2589 -28.3791,0.14736 -40.8769,7.05664 -28.0431,13.44998 -42.9439,44.43051 -46.5625,74.11719 -4.5882,0.65813 -8.4134,-14.38246 -13.793,-18.91211 -3.6229,-8.79991 -16.9328,-15.85127 -16.0313,-1.1875 0.7526,12.48718 -5.4977,-0.39564 -8.6875,-3.92383 -4.4627,-9.72234 -13.0196,-4.06364 -11.5605,4.95117 -1.7022,18.67336 -7.9452,-15.057 -15.2324,-3.63867 -7.8857,18.57162 -0.2094,40.22101 13.3554,54.01953 10.6196,11.72652 29.0138,20.48904 44.2422,12.75586 1.2032,4.75385 4.7256,18.74481 -0.083,24.44196 28.8766,18.63525 15.0361,7.3327 32.7687,20.91072 15.0985,2.64609 33.521,5.24205 40.9314,13.28599 l 11.0714,-2.5 c 10.8131,-1.20491 8.5148,-1.94729 20.6069,4.4774 5.3669,-11.09522 23.8831,-20.78112 32.8558,-12.09263 3.9853,10.45236 10.9337,-18.64912 18.0776,-12.94755 l 11.4782,-36.58175 c 10.6337,8.67262 25.143,3.19027 35.4003,-3.28515 17.3946,-11.81239 29.7913,-33.13127 25.9258,-54.54297 0.6825,-10.32371 -9.8958,-13.75069 -12.3105,-2.83594 -5.1792,12.04086 -4.4213,0.0556 -6.2266,-5.79688 -2.7903,-14.61951 -13.4465,2.91093 -17.4648,7.90625 -1.8536,-6.72086 -5.7965,-21.79167 -14.2227,-8.11718 -7.3769,5.12553 -11.586,22.52703 -17.4785,22.8789 -2.4193,-13.07028 -5.3557,-26.24441 -11.8633,-38.00195 -0.5597,-8.29557 -19.7238,-18.50537 -8.2851,-23.4668 5.1093,-12.69543 -11.7535,-5.46511 -16.6328,-6.70703 3.1953,-4.09997 3.4393,-13.68351 -1.5098,-13.83008 z m -38.8301,8.22071 c 4.7078,0.009 9.2035,0.98951 13.0195,3.58984 5.3881,10.73722 17.1539,4.20575 24.1036,9.36133 -2.4243,8.05001 1.158,17.32235 9.6445,21.05664 10.701,0.95036 14.5948,8.02975 17.1348,17.67578 5.2799,17.18612 7.4581,35.02724 9.4628,52.88086 -0.074,8.66487 5.1446,22.00712 -0.3828,28.02148 -15.9825,20.01132 -40.2913,34.10886 -66.2422,34.69336 -26.8608,2.66523 -64.3565,-10.19967 -83.373,-29.29101 1.6306,-21.27595 3.5792,-42.52859 7.3438,-63.55469 3.7145,-28.33383 18.5909,-57.80062 46.1386,-69.39258 6.8674,-2.37274 15.3041,-5.05576 23.1504,-5.04101 z"
         transform="scale(0.26458333)"
         id="path1233" />
      <g
         id="g1292">
        <path
           id="path1225"
           d="m 348.28294,184.84684 c 1.53671,-0.96417 2.1516,-2.89746 1.97325,-4.63517 -0.16723,-1.65089 -0.73527,-3.24188 -1.41544,-4.74529 -0.36096,-0.93318 -1.07424,0.38707 -1.5455,0.61219 -1.24308,0.95503 -2.5634,1.85543 -4.03093,2.42514 -0.82029,0.10952 -1.58007,0.50642 -2.42288,0.49691 -1.28422,0.075 -2.61046,0.0785 -3.83363,-0.36495 -0.07,0.60765 0.75243,1.39801 1.1218,1.99503 1.68322,2.09736 3.91003,3.84682 6.49386,4.66682 1.21275,0.34166 2.58961,0.25949 3.65947,-0.45068 z"
           style="fill:#784421;fill-opacity:1;stroke-width:0.16584116" />
        <path
           id="path1221"
           d="m 338.37742,177.02129 c -0.572,-1.49688 -1.39153,-2.89165 -2.18754,-4.27953 -0.13198,-0.33612 -0.47261,-1.30609 -0.7597,-0.50801 -0.26066,1.014 -0.0449,2.0778 0.0645,3.10007 0.002,0.83378 0.56182,1.45297 1.36395,1.63442 0.39449,0.0739 1.34902,0.68528 1.51878,0.053 z"
           style="fill:#e9c6af;fill-opacity:1;stroke-width:0.16584116" />
        <path
           id="path1219"
           d="m 342.81367,176.94419 c 1.07975,-0.15723 0.5262,-1.15534 0.25769,-1.78464 -0.69322,-1.675 -1.4456,-3.37732 -2.62655,-4.77037 -0.61835,-0.0374 -0.40181,1.21998 -0.50257,1.70556 -0.005,1.58482 0.0276,3.20249 0.4537,4.73869 0.24762,0.84544 1.3022,0.43059 1.91236,0.28384 0.17029,-0.0521 0.33873,-0.11026 0.50537,-0.17308 z"
           style="fill:#e9c6af;fill-opacity:1;stroke-width:0.16584116" />
        <path
           id="path1213"
           d="m 346.74133,174.51538 c 0.46331,-0.48953 1.50577,-1.10628 0.81228,-1.83648 -0.52004,-0.81944 -0.99999,-1.71468 -1.76153,-2.33716 -0.79797,-0.22084 -0.50696,1.12794 -0.59812,1.6077 -10e-4,1.16736 -0.0663,2.34976 0.0965,3.50606 0.54554,0.15712 0.99982,-0.67868 1.45089,-0.94012 z"
           style="fill:#e9c6af;fill-opacity:1;stroke-width:0.16584116" />
      </g>
      <g
         id="g1286">
        <path
           id="path1223"
           d="m 399.50975,185.19957 c 1.82569,-0.52542 3.40862,-1.64975 4.71721,-3.00333 0.99114,-1.01952 1.96975,-2.0785 2.70454,-3.30186 0.19955,-0.67344 -0.83101,0.20157 -1.19849,0.0697 -1.51148,0.14193 -3.08527,0.16373 -4.53429,-0.35018 -0.73028,-0.0363 -1.14693,-0.53765 -1.80039,-0.70474 -1.25271,-0.60488 -2.40395,-1.40623 -3.39455,-2.3839 -0.29014,-0.33624 -0.89169,-0.83569 -0.96555,-0.0683 -0.62807,1.53085 -1.38195,3.08284 -1.33181,4.78031 7.8e-4,1.0973 -0.12838,2.30193 0.56538,3.24252 0.6211,0.87106 1.4829,1.6723 2.54176,1.94303 0.89632,0.14838 1.83126,0.04 2.69619,-0.2233 z"
           style="fill:#784421;fill-opacity:1;stroke-width:0.16584116" />
        <path
           id="path1217"
           d="m 403.35778,177.17349 c 0.39806,-0.90268 0.43668,-1.92179 0.56542,-2.89063 0.11425,-1.21492 0.16202,-2.47243 -0.17617,-3.65501 -0.55093,-0.53448 -0.92972,0.78188 -1.25719,1.14564 -0.75675,1.38493 -1.54417,2.78724 -1.96313,4.31731 -0.14639,0.78178 0.85713,0.93119 1.39792,1.13453 0.45389,0.0955 1.0366,0.27062 1.43315,-0.0518 z"
           style="fill:#e9c6af;fill-opacity:1;stroke-width:0.16584116" />
        <path
           id="path1215"
           d="m 407.21807,176.93426 c 0.84221,-0.14091 1.14636,-1.00672 1.25101,-1.74893 0.14342,-1.02666 0.3243,-2.09717 0.11192,-3.12352 -0.67667,-0.25763 -0.93099,0.92417 -1.2787,1.36846 -0.56844,1.15128 -1.32721,2.22972 -1.68596,3.47198 -0.0739,0.71162 1.2456,0.0918 1.60173,0.032 z"
           style="fill:#e9c6af;fill-opacity:1;stroke-width:0.16584116" />
        <path
           id="path1211"
           d="m 398.67964,172.67034 c -0.0556,-0.81873 -0.0495,-1.65573 -0.24186,-2.45513 -0.62994,0.29625 -1.05264,0.96489 -1.52065,1.48003 -0.4245,0.55928 -1.19174,1.36912 -0.52196,2.04329 0.55667,0.59686 1.15051,1.19339 1.85571,1.61092 0.77115,-0.0702 0.37786,-1.29558 0.45961,-1.87573 -0.009,-0.26785 -0.0195,-0.53563 -0.0308,-0.80338 z"
           style="fill:#e9c6af;fill-opacity:1;stroke-width:0.16584116" />
      </g>
      <path
         style="fill:#c83737;stroke-width:0.16584116"
         d="m 386.96228,164.0446 c 0.52161,-1.01844 -0.97514,-1.04622 -1.54179,-1.40028 -0.84048,-0.31126 -1.47813,-0.98925 -1.78904,-1.82406 -0.41369,-0.72624 0.2275,-1.4634 0.8059,-1.85316 0.51168,-0.51254 1.31125,-0.34395 1.85498,-0.67964 0.50256,-0.89472 -0.70478,-1.10742 -1.32185,-0.8247 -1.16763,0.17416 -2.19789,1.0687 -2.42217,2.24368 -0.26829,1.17121 0.10337,2.4839 1.07176,3.23426 0.82371,0.68303 1.82779,1.32552 2.93356,1.30283 0.15202,-0.0197 0.30919,-0.0773 0.40865,-0.19893 z"
         id="path1209" />
      <path
         style="fill:#c83737;stroke-width:0.16584116"
         d="m 380.81246,157.16869 c 0.82785,-0.65212 1.54056,-1.63427 1.57531,-2.71874 -0.31172,-0.98879 -1.08611,0.0479 -1.27486,0.55623 -0.53569,0.67954 -1.18538,1.53659 -2.1493,1.48469 -1.15709,0.012 -2.02554,-0.91666 -2.53098,-1.86502 -0.39164,-0.93455 -1.47254,-0.1008 -0.90955,0.62278 0.46264,1.02568 1.28606,2.02835 2.41947,2.3081 0.95197,0.11548 2.00875,0.066 2.86991,-0.38804 z"
         id="path1207" />
      <path
         style="fill:#000000;stroke-width:0.16584116"
         d="m 361.40639,196.96231 c -0.42459,-0.26222 -0.50772,-0.93776 -0.24182,-1.96503 0.1343,-0.51887 0.47945,-1.91356 0.767,-3.09933 0.61005,-2.51574 1.42614,-5.34491 1.6643,-5.76972 0.2176,-0.38814 0.0636,-0.61516 -0.41724,-0.61516 -0.41015,0 -0.63776,-0.34176 -0.48783,-0.73248 0.0496,-0.12924 0.38408,-0.42946 0.74329,-0.66718 0.56816,-0.37599 0.63926,-0.49104 0.54658,-0.88447 -0.14305,-0.60729 -0.21809,-0.6687 -0.89291,-0.73065 -0.52254,-0.0479 -0.58045,-0.10292 -0.58045,-0.55081 0,-0.4206 0.0882,-0.52601 0.57021,-0.68182 0.5127,-0.16571 0.79475,-0.49975 0.82779,-0.98033 0.006,-0.0933 -0.24955,-0.31026 -0.56879,-0.48218 -0.60687,-0.32682 -0.69534,-0.56501 -0.40877,-1.10047 0.20794,-0.38854 0.69568,-0.4121 1.23369,-0.0596 0.37218,0.24386 0.43237,0.23628 0.90629,-0.11411 0.54204,-0.40075 0.64882,-0.64462 0.28223,-0.64462 -0.12398,0 -0.57499,-0.30771 -1.00225,-0.6838 -0.42726,-0.37609 -0.79878,-0.65595 -0.82559,-0.62191 -0.0268,0.034 -0.17947,0.39773 -0.33925,0.80819 -0.35191,0.90401 -0.49238,1.08311 -1.32235,1.68606 -1.40265,1.01899 -3.61001,0.3839 -4.4101,-1.26884 -0.71692,-1.48096 -0.14776,-3.36427 1.21939,-4.03487 0.63248,-0.31024 0.71878,-0.22731 -2.42069,-2.32602 -0.34079,-0.22781 -0.66315,-0.55138 -0.71636,-0.71905 -0.26258,-0.82731 2.99949,-4.78032 3.94478,-4.78032 0.24352,0 0.50244,0.10049 0.57538,0.2233 0.0729,0.12282 0.54308,0.50879 1.04474,0.85772 0.50168,0.34892 0.98676,0.72191 1.07797,0.82885 0.0912,0.10694 0.80019,0.72082 1.57549,1.36417 0.77531,0.64336 1.81756,1.58783 2.31611,2.09883 0.49856,0.511 0.9628,0.92909 1.03165,0.92909 0.13537,0 0.96411,-1.66668 0.96411,-1.93893 0,-0.31372 0.63681,-0.74107 1.02283,-0.68639 0.4226,0.0599 0.42599,0.0963 0.15146,1.63028 -0.30573,1.70823 -1.2696,3.76882 -2.47803,5.2976 -0.38368,0.4854 -0.66461,0.91554 -0.62427,0.95587 0.0403,0.0404 0.36003,-0.11378 0.71044,-0.34247 1.34317,-0.87659 2.59483,-1.16944 5.03192,-1.17731 2.48736,-0.008 3.65898,0.26493 5.30629,1.23622 0.97878,0.57711 1.10545,0.61223 0.70545,0.1956 -1.0219,-1.06438 -1.87706,-2.34269 -2.40497,-3.59498 -1.16088,-2.75384 -1.26525,-4.34355 -0.27585,-4.202 0.28249,0.0404 0.43949,0.21726 0.56503,0.63642 0.21015,0.70168 0.87725,1.99009 1.0304,1.99009 0.0606,0 0.74942,-0.61733 1.53066,-1.37185 0.78125,-0.75451 1.86822,-1.75687 2.41549,-2.22745 1.08432,-0.93236 1.10411,-1.09399 0.21519,-1.75767 -0.58871,-0.43953 -1.02213,-0.17167 -1.29413,0.79981 -0.2138,0.76361 -0.9908,1.57202 -1.51092,1.57202 -0.13023,0 -0.51499,-0.22931 -0.85502,-0.50959 -0.50877,-0.41938 -0.61837,-0.61757 -0.61905,-1.11943 -0.003,-2.03781 1.76325,-4.00763 3.59412,-4.00896 1.13288,-6.2e-4 2.19882,0.47586 3.11672,1.39375 0.47705,0.47705 0.95071,0.78366 1.31671,0.85232 1.20159,0.22542 4.09669,3.96753 3.84508,4.97002 -0.0523,0.20836 -0.30076,0.46115 -0.55215,0.56175 -0.25138,0.10059 -0.68095,0.33106 -0.95458,0.51214 -0.27364,0.18109 -0.60947,0.38789 -0.74629,0.45958 -0.71095,0.37247 -1.49257,0.91802 -1.49257,1.04178 0,0.0772 0.20523,0.23844 0.45606,0.35825 0.25084,0.11981 0.69861,0.58009 0.99505,1.02284 0.69791,1.04237 0.72656,1.96043 0.0962,3.08184 -0.94572,1.68241 -2.85432,2.18389 -4.37146,1.1486 -0.82365,-0.56205 -1.32186,-1.2748 -1.32186,-1.89109 0,-0.63797 -0.30333,-0.641 -1.00177,-0.01 -0.36168,0.32675 -0.71335,0.59524 -0.7815,0.59663 -0.0682,0.001 -0.23585,0.0746 -0.37266,0.16272 -0.20871,0.13438 -0.17224,0.22653 0.2265,0.57224 0.44433,0.38524 0.50584,0.39623 0.94534,0.16896 0.81507,-0.42148 1.48161,-0.2229 1.48161,0.4414 0,0.26764 -0.61743,0.87569 -1.02824,1.01262 -0.12661,0.0422 -0.1333,0.2081 -0.0219,0.54242 0.11398,0.34193 0.31298,0.52111 0.68614,0.61781 0.3577,0.0927 0.55774,0.26428 0.62624,0.53717 0.13468,0.53662 -0.0252,0.751 -0.56228,0.75406 -0.61599,0.004 -0.84019,0.181 -0.94987,0.75199 -0.0841,0.43775 -0.0233,0.52909 0.57795,0.86737 0.54965,0.30929 0.67192,0.46773 0.67192,0.87067 0,0.35758 -0.0795,0.49326 -0.29022,0.49511 -0.63359,0.006 -0.74823,0.23591 -0.46031,0.92499 0.148,0.35421 0.3329,0.9061 0.41088,1.22643 0.078,0.32033 0.3396,1.29139 0.58136,2.15791 0.24176,0.86652 0.54178,1.98595 0.6667,2.48761 0.12491,0.50168 0.34477,1.37744 0.48856,1.94613 0.63472,2.51032 0.32306,2.98264 -1.83945,2.7877 -0.71437,-0.0644 -1.63467,-0.19039 -2.04513,-0.27998 -0.97177,-0.21212 -12.46052,-0.21226 -13.43314,-1.6e-4 -1.20763,0.26334 -3.53576,0.3823 -3.8373,0.19607 z"
         id="path1205" />
      <path
         style="fill:#c83737;stroke-width:0.16584116"
         d="m 365.40954,194.85817 c 1.12523,-0.36248 10.80308,-0.3361 13.51605,0.0369 1.06996,0.14709 0.89596,-0.0421 -0.82921,-0.90158 -1.97697,-0.98493 -3.62124,-1.34944 -6.08083,-1.34804 -2.5768,10e-4 -4.30241,0.38885 -6.39429,1.43546 -1.76764,0.88439 -1.88533,1.31645 -0.21172,0.77731 z"
         id="path1203" />
      <path
         style="fill:#ffffff;stroke-width:0.16584116"
         d="m 371.42782,189.27569 c 0.12127,-0.31604 -3.3e-4,-1.79208 -0.16049,-1.94673 -0.075,-0.0724 -0.41535,-0.18295 -0.75643,-0.24562 -0.49024,-0.0901 -0.64185,-0.0574 -0.72371,0.15591 -0.1399,0.36458 0.18113,1.09223 0.76287,1.72916 0.51849,0.56767 0.74713,0.64771 0.87776,0.30728 z"
         id="path1201" />
      <path
         style="fill:#ffffff;stroke-width:0.16584116"
         d="m 373.614,188.59861 c 0.78319,-1.13715 0.73838,-1.52882 -0.16704,-1.46026 -0.82116,0.0622 -1.0721,0.38142 -1.0721,1.36391 0,1.31143 0.38184,1.34112 1.23914,0.0964 z"
         id="path1199" />
      <path
         style="fill:#e9c6af;fill-opacity:1;stroke-width:0.16584116"
         d="m 373.35511,185.83558 c 1.40769,-0.2284 2.73897,-0.70811 3.43188,-1.23662 0.64062,-0.48862 0.71167,-0.81897 0.23143,-1.07599 -0.45171,-0.24174 -0.42522,-0.664 0.0414,-0.66082 0.20522,10e-4 0.48106,0.0708 0.61296,0.15427 0.31837,0.20141 0.85349,-0.0897 0.73457,-0.39961 -0.0568,-0.14805 -0.38293,-0.25658 -0.8645,-0.28769 l -0.77326,-0.05 -0.0501,-0.87146 c -0.0463,-0.80479 -0.0174,-0.88391 0.3774,-1.03403 1.58473,-0.60251 -0.77939,-2.30621 -3.93526,-2.83593 -1.11565,-0.18727 -1.47249,-0.18 -2.6906,0.0548 -2.17037,0.4184 -4.54142,1.71551 -4.29756,2.35101 0.049,0.1277 0.30762,0.3227 0.57471,0.43333 0.42084,0.17432 0.4856,0.28839 0.4856,0.8553 0,1.0259 -0.2098,1.28049 -0.97111,1.17838 -0.70286,-0.0943 -1.01047,0.14253 -0.68873,0.5302 0.14212,0.17125 0.30166,0.19118 0.60552,0.0757 0.60196,-0.22887 1.05432,-0.19193 1.05432,0.0861 0,0.13361 -0.15379,0.32523 -0.34175,0.42582 -0.21478,0.11495 -0.3226,0.31308 -0.29022,0.53333 0.10339,0.70316 3.2517,1.89486 5.10968,1.93412 0.31925,0.007 1.05887,-0.0653 1.64362,-0.16023 z"
         id="path1197" />
      <path
         style="fill:#000000;stroke-width:0.16584116"
         d="m 370.83369,182.60537 c -1.68517,-0.61848 -2.64163,-2.07527 -2.1698,-3.30484 0.22506,-0.58651 1.38576,-0.96819 2.96469,-0.97491 1.90922,-0.008 2.60607,0.13389 3.22902,0.65807 0.64617,0.54371 0.66789,1.26384 0.0649,2.15291 -0.53139,0.78353 -0.8908,1.05685 -1.87499,1.42589 -0.90676,0.34 -1.37935,0.34915 -2.21386,0.0429 z"
         id="path1195" />
      <path
         style="fill:#ffd5d5;stroke-width:0.16584116"
         d="m 371.56875,180.04031 0.39151,-0.33168 -0.39015,-0.33057 c -0.75477,-0.63953 -2.16358,0.1152 -1.48385,0.79492 0.30383,0.30384 1.04559,0.23746 1.48249,-0.13267 z"
         id="path1193" />
      <path
         style="fill:#e9c6af;fill-opacity:1;stroke-width:0.16584116"
         d="m 366.36191,181.24878 c 0.0683,-0.20744 -0.72708,-0.49399 -0.89767,-0.32341 -0.0527,0.0526 -0.0495,0.21608 0.007,0.36323 0.11706,0.30505 0.78701,0.2751 0.89068,-0.0398 z"
         id="path1191" />
      <path
         style="fill:#e9c6af;fill-opacity:1;stroke-width:0.16584116"
         d="m 378.42807,181.20348 c 0,-0.29524 -0.54703,-0.43371 -0.78262,-0.19811 -0.0918,0.0918 -0.11417,0.25233 -0.0496,0.35671 0.16485,0.26674 0.83228,0.13956 0.83228,-0.1586 z"
         id="path1189" />
      <path
         style="fill:#ffd5d5;stroke-width:0.16584116"
         d="m 359.96518,176.28319 c 0.34645,-0.31353 0.39734,-0.89186 0.10427,-1.18494 -0.33429,-0.33428 -0.9348,-0.22867 -1.2259,0.2156 -0.25164,0.38406 -0.25164,0.44513 0,0.8292 0.3152,0.48104 0.6928,0.52822 1.12163,0.14014 z"
         id="path1187" />
      <path
         style="fill:#ffd5d5;stroke-width:0.16584116"
         d="m 383.34878,176.28319 c 0.35541,-0.32164 0.37973,-0.6889 0.0724,-1.09373 -0.27709,-0.36502 -0.7313,-0.37139 -1.12427,-0.0157 -0.37633,0.34057 -0.38555,0.68649 -0.0288,1.08067 0.34056,0.37632 0.68648,0.38554 1.08066,0.0288 z"
         id="path1185" />
      <path
         style="fill:#c83737;stroke-width:0.16584116"
         d="m 378.73099,167.38738 c 0.23241,-0.7484 0.76512,-1.48655 1.5195,-1.76313 0.86795,-0.0331 1.47731,0.73782 2.03995,1.29569 0.29587,0.59655 1.49862,1.29001 1.6725,0.29816 -0.55164,-0.91674 -1.35053,-1.68144 -2.19356,-2.33205 -0.77388,-0.37323 -1.71161,-0.32139 -2.52673,-0.10666 -0.78518,0.40214 -1.18133,1.29444 -1.44761,2.09402 -0.32608,0.54298 0.054,1.6546 0.73888,1.01543 0.10764,-0.147 0.15363,-0.32787 0.19707,-0.50146 z"
         id="path1183" />
      <path
         style="fill:#000000;stroke-width:0.16584116"
         d="m 373.63341,165.26773 c -0.72005,-0.60381 -0.27328,-1.51897 0.23684,-2.0833 0.36911,-0.60916 1.10337,-1.25593 0.83195,-2.03113 -0.53488,-0.74965 -1.5752,-0.62208 -2.38288,-0.7089 -0.80131,-0.11644 -1.66575,-0.96609 -1.26462,-1.80987 0.58535,-0.89446 1.78675,-1.14448 2.77408,-0.87641 1.10914,0.25588 2.26629,0.56293 3.18411,1.26304 1.11334,1.18452 0.99517,3.05672 0.27501,4.41694 -0.44941,0.84164 -1.0326,1.65312 -1.81026,2.21628 -0.60434,0.22266 -1.45048,0.21397 -1.84423,-0.38665 z"
         id="path1181" />
      <path
         style="fill:#c83737;stroke-width:0.16584116"
         d="m 375.39189,164.49271 c 1.05823,-1.06116 1.68644,-2.6361 1.32809,-4.12717 -0.525,-1.23971 -1.93954,-1.79078 -3.20005,-1.90406 -0.55784,-0.17612 -2.13565,0.13087 -1.37544,0.89506 0.59728,0.20588 1.26682,0.0887 1.86168,0.34542 0.73658,0.26254 1.69407,0.63081 1.81248,1.51292 -0.0209,1.24307 -1.10432,2.09857 -1.51945,3.19965 -0.008,0.7385 0.82574,0.53955 1.09269,0.0782 z"
         id="path1107" />
    </g>
  </g>
</svg>
