<?xml version="1.0" encoding="UTF-8" standalone="no"?>
<svg
   xmlns:dc="http://purl.org/dc/elements/1.1/"
   xmlns:cc="http://creativecommons.org/ns#"
   xmlns:rdf="http://www.w3.org/1999/02/22-rdf-syntax-ns#"
   xmlns:svg="http://www.w3.org/2000/svg"
   xmlns="http://www.w3.org/2000/svg"
   id="svg8"
   version="1.1"
   viewBox="0 0 72 32"
   height="32mm"
   width="72mm">
  <defs
     id="defs2" />
  <metadata
     id="metadata5">
    <rdf:RDF>
      <cc:Work
         rdf:about="">
        <dc:format>image/svg+xml</dc:format>
        <dc:type
           rdf:resource="http://purl.org/dc/dcmitype/StillImage" />
        <dc:title></dc:title>
      </cc:Work>
    </rdf:RDF>
  </metadata>
  <g
     transform="translate(0,-265)"
     id="layer1">
    <g
       transform="translate(129.35845,155.01632)"
       id="g871" />
    <g
       transform="matrix(1.0098145,0,0,1.0666341,-132.78331,184.19245)"
       id="g2099">
      <path
         style="fill:#6c4703;fill-opacity:1;stroke:#000000;stroke-width:3.77952766;stroke-miterlimit:4;stroke-dasharray:none;stroke-opacity:1"
         d="m 685.79297,291.14844 c -13.40386,4.5369 -28.06814,-1.46876 -27.83789,10.29883 -0.10133,2.69503 0.6668,4.23013 3.63086,7.26562 2.14718,2.19893 3.61097,4.59567 3.41406,5.5918 -0.18958,0.95894 -2.59784,3.01579 -5.35156,4.57031 l -5.00782,2.82617 -2.24218,-2.8164 c -2.64219,-3.31877 -19.74377,-7.10188 -19.74377,-7.10188 l -16.7035,3.40852 c -1.93062,1.87498 -3.78024,4.76348 -4.11133,6.41797 -0.47312,2.36567 -1.01746,2.89944 -2.54492,2.5 -2.27902,-0.59596 -11.14062,3.07668 -11.14062,4.61718 h -0.002 c 0,0.58092 -1.80001,1.05664 -4,1.05664 -5.47517,0 -8.30893,-2.82994 -7.44531,-7.43359 0.54134,-2.88548 0.13446,-3.90571 -2.88867,-7.25195 l -3.51758,-3.89258 c -9.1799,-5.01253 -7.1058,-6.80433 -15.13867,-1.40039 -9.3086,0.0453 -16.02053,5.4047 -17.375,13.875 l -0.59961,3.75 -4.91016,-0.0723 c -4.92487,-0.0736 -9.78816,2.54077 -8.52539,4.58399 0.30293,0.49013 0.099,0.76836 -0.45312,0.61718 -0.55204,-0.1511 -1.63249,0.56942 -2.40235,1.60157 -1.18956,1.59484 -1.74141,1.69345 -3.67578,0.6582 -3.30523,-1.76893 -8.51419,-0.44073 -11.76172,3 -1.61949,1.71587 -3.85182,2.9772 -5.30078,2.99609 -3.23316,0.0411 -5.65647,1.92356 -6.99023,5.43164 -2.06495,5.43115 1.42841,10.82477 6.7168,10.36914 2.81722,-0.24272 3.61551,0.20828 5.31445,3.00196 2.67303,4.39547 7.87637,6.55867 12.62305,5.24804 2.73172,-0.75424 3.89202,-0.66465 4.9414,0.38477 0.75447,0.75443 4.41336,1.64188 8.13086,1.9707 3.71754,0.32886 7.93969,0.97761 9.38086,1.44336 1.70226,0.55015 3.69602,0.39479 5.68945,-0.44336 2.60274,-1.09428 3.25765,-1.06089 4.31641,0.21485 1.94532,2.34395 10.264,6.22634 14.94336,6.97461 2.32913,0.37247 5.06568,1.50907 6.08203,2.52539 2.27169,2.27161 6.58988,2.39227 8.95703,0.25 2.20033,-1.99126 3.52427,-1.21441 5.33985,3.13086 1.47065,3.51983 5.01322,5.27111 8.19336,4.05078 0.91501,-0.35112 2.43608,0.0827 3.42382,0.97656 0.97777,0.8849 3.72528,1.85546 6.10547,2.1582 2.3802,0.30267 4.8106,0.92862 5.40039,1.39063 0.58984,0.46201 3.51482,1.49632 6.5,2.29883 2.98519,0.80254 6.79684,1.48759 8.46875,1.52539 4.76175,0.1031 14.58758,-2.77782 18.6875,-5.47852 4.06987,-2.68086 11.45753,-3.36864 13.5625,-1.26367 1.54715,1.54726 10.78735,1.40213 12.7168,-0.19922 0.82038,-0.68081 1.49219,-1.85759 1.49219,-2.61523 0,-0.92092 1.22175,-1.37696 3.68554,-1.37696 2.14473,0 4.54861,-0.76326 5.75,-1.82422 2.75834,-2.43586 9.71223,-4.42843 10.99024,-3.15039 0.53646,0.53647 2.44965,0.97461 4.25195,0.97461 2.39036,0 3.71933,-0.67572 4.91211,-2.49609 1.50149,-2.29157 2.062,-2.44446 6.85742,-1.88086 4.73515,0.55654 5.40291,0.3821 7.16602,-1.85937 1.61163,-2.04885 2.368,-2.31408 4.41601,-1.55469 3.48152,1.29093 8.78386,0.0677 11.50391,-2.65235 1.60898,-1.60921 3.08094,-2.16209 4.84961,-1.82422 4.26659,0.81563 12.42717,-1.67425 14.61914,-4.46093 1.64942,-2.09696 1.88611,-3.47959 1.39844,-8.14844 -0.64041,-6.13092 -2.50282,-11.13383 -4.88086,-13.10742 -0.83513,-0.69313 -1.51953,-2.30504 -1.51953,-3.58203 0,-3.81661 -3.95256,-7.48359 -8.76368,-8.12891 -2.3439,-0.31438 -4.20342,-1.0734 -4.13085,-1.6875 0.63783,-5.4085 -2.72287,-9.93459 -8.28516,-11.15625 -1.66254,-0.36518 -3.87786,-1.51852 -4.92188,-2.5625 -1.04398,-1.04402 -3.21988,-1.89844 -4.83593,-1.89844 -1.8593,0 -4.12903,-1.08799 -6.17969,-2.96093 -1.78231,-1.62792 -4.4786,-3.22991 -5.99219,-3.5625 -1.51362,-0.33245 -3.28803,-1.25136 -3.94336,-2.04102 -0.65537,-0.78962 -1.93753,-1.43555 -2.84961,-1.43555 -0.92046,0 -2.15718,-1.32068 -2.77929,-2.96875 -1.32084,-3.49935 -4.59256,-5.09854 -15.67969,-7.66601 z"
         transform="scale(0.26458333)"
         id="path1856" />
      <path
         style="fill:#3a2702;fill-opacity:1;stroke:#000000;stroke-width:0.26499999;stroke-miterlimit:4;stroke-dasharray:none;stroke-opacity:1"
         d="m 180.92021,77.033016 c -1.43989,0.87536 0.45176,6.52184 1.70378,7.17988 0.63521,0.32848 0.81182,0.62929 0.96427,1.64589 0.10261,0.68418 0.40593,1.4797 0.67437,1.76785 0.95909,1.02949 0.91623,3.91982 -0.0537,3.62304 -0.20778,-0.0635 -1.19068,-0.11551 -2.18435,-0.11472 -1.91871,10e-4 -2.28232,0.21657 -2.29031,1.35444 -0.002,0.32743 0.24275,0.8422 0.54414,1.14359 0.30141,0.30139 0.59219,0.77878 0.64648,1.06092 0.16367,0.84987 -0.41449,2.18557 -1.25936,2.90938 -0.71327,0.61107 -0.89916,0.65421 -1.79163,0.416 -1.23097,-0.32857 -3.05988,0.26123 -3.00188,0.9679 0.0199,0.24326 -0.0694,0.37694 -0.19844,0.29714 -0.12909,-0.0798 -0.23511,0.0938 -0.23511,0.38602 0,0.562384 -1.31336,1.696484 -2.31873,2.001954 -0.32953,0.10012 -0.54964,0.26251 -0.48887,0.36121 0.19902,0.32275 -3.71914,0.35596 -4.88754,0.0413 -0.97349,-0.26214 -1.18509,-0.24532 -1.44798,0.1142 -0.16933,0.23159 -0.48819,0.42065 -0.70899,0.42065 -0.2208,0 -0.54407,0.17152 -0.71779,0.38085 -0.0163,0.0196 -0.026,0.0361 -0.0393,0.0543 0.26409,0.13724 0.94211,0.36942 1.63245,0.55501 0.78983,0.21233 1.79833,0.39359 2.24069,0.40359 0.69702,0.0151 1.80118,-0.21512 2.83497,-0.54157 0.56866,-0.20714 1.10598,-0.4618 1.58027,-0.76016 0.33081,-0.20811 0.74472,-0.36794 1.17512,-0.47439 1.08281,-0.42335 2.4846,-0.46561 2.94246,-0.008 0.31549,0.3155 1.83705,0.36402 2.75331,0.17622 0.0292,-0.017 0.0594,-0.0338 0.0816,-0.0522 0.21706,-0.18014 0.39481,-0.49148 0.39481,-0.69195 0,-0.19032 0.20396,-0.30329 0.601,-0.34468 0.12676,-0.13064 0.42587,-0.19637 0.90382,-0.19637 0.20084,0 0.40997,-0.0262 0.61081,-0.0713 0.14936,-0.0685 0.2817,-0.14703 0.38087,-0.23461 0.37288,-0.3293 1.03463,-0.62587 1.63864,-0.79427 0.75933,-0.293794 1.58338,-0.431514 1.79888,-0.216014 0.14192,0.14195 0.64812,0.257874 1.12498,0.257874 0.11565,0 0.21945,-0.008 0.31782,-0.0212 0.1701,-0.105034 0.31546,-0.253884 0.45217,-0.462504 0.25977,-0.39648 0.41873,-0.54854 0.84852,-0.56638 0.26122,-0.21939 0.59539,-0.21379 1.4955,-0.108 0.45414,0.0534 0.76409,0.0804 1.00047,0.0661 0.11941,-0.0885 0.23104,-0.20996 0.36587,-0.38138 0.323,-0.41063 0.51662,-0.55 0.82682,-0.50642 0.25665,-0.22914 0.47056,-0.23024 0.87128,-0.0816 0.48389,0.17943 1.09958,0.17144 1.6805,0.0227 0.32054,-0.13901 0.60999,-0.32421 0.83354,-0.54777 0.31811,-0.31812 0.61611,-0.47999 0.94155,-0.50436 0.27821,-0.1658 0.55702,-0.21506 0.87127,-0.15503 0.53567,0.1024 1.3023,0.004 2.02314,-0.20257 0.58062,-0.22011 1.07995,-0.50246 1.31516,-0.8015 0.4364,-0.55483 0.49903,-0.92064 0.36999,-2.15594 -0.16944,-1.62214 -0.6622,-2.94584 -1.29138,-3.46801 -0.22098,-0.18339 -0.40206,-0.60987 -0.40206,-0.94774 0,-1.00981 -1.04576,-1.98005 -2.31873,-2.15078 -0.62015,-0.0832 -1.11214,-0.284 -1.09294,-0.44648 0.16876,-1.431 -0.72043,-2.62852 -2.19212,-2.95176 -0.43987,-0.0966 -1.026,-0.40176 -1.30223,-0.67799 -0.27622,-0.27622 -0.85193,-0.5023 -1.27952,-0.5023 -0.49194,0 -1.09247,-0.28733 -1.63505,-0.78289 -0.47157,-0.43071 -1.18496,-0.8551 -1.58543,-0.9431 -0.40048,-0.088 -0.86995,-0.33109 -1.04334,-0.54002 -0.1734,-0.20893 -0.51263,-0.37982 -0.75395,-0.37982 -0.24355,0 -0.57076,-0.34943 -0.73536,-0.78548 -0.34949,-0.92588 -1.21512,-1.34899 -4.14859,-2.0283 -0.0132,-0.003 -0.0236,-0.006 -0.0367,-0.009 z"
         id="path1961" />
      <path
         style="fill:#3a2702;fill-opacity:1;stroke:#000000;stroke-width:0.26499999;stroke-miterlimit:4;stroke-dasharray:none;stroke-opacity:1"
         d="m 167.6946,88.521104 c -3.30144,0 -3.67547,0.22544 -3.51762,2.12029 0.12597,1.51213 0.3066,1.69788 2.06913,2.12442 0.77466,0.18746 1.76537,0.34895 2.20193,0.35915 1.07257,0.025 3.02917,-0.58226 3.30264,-1.02475 0.36769,-0.59493 -0.0176,-2.21317 -0.69506,-2.91765 -0.59767,-0.62156 -0.80084,-0.66146 -3.36102,-0.66146 z"
         id="path1929" />
      <path
         style="fill:#3a2702;fill-opacity:1;stroke:none;stroke-width:0.26458335;stroke-opacity:1"
         d="m 154.46284,93.02019 c -0.24691,-0.006 -0.52344,-0.004 -0.83199,0.005 -1.09702,0.029 -1.93696,0.10993 -1.86706,0.17983 0.0699,0.0699 -0.058,0.48501 -0.28423,0.92243 -0.31843,0.61571 -0.33814,0.84067 -0.0863,0.99632 0.24737,0.15286 0.25595,0.40054 0.0357,1.03249 -0.1594,0.45717 -0.18883,0.76857 -0.0656,0.69247 0.1232,-0.0761 0.37104,0.0391 0.55087,0.2558 0.17987,0.21667 0.23951,0.39377 0.13281,0.39377 -0.1067,0 0.0874,0.22791 0.43098,0.50643 0.34354,0.27854 0.68353,0.44727 0.75603,0.37517 0.0725,-0.0721 -0.10606,-0.31238 -0.39688,-0.53382 -0.52852,-0.40245 -0.52844,-0.40237 5.2e-4,-0.25735 0.4939,0.13538 2.28766,0.25779 2.93161,0.19999 0.37565,-0.0337 1.39379,-2.37802 1.35288,-3.11505 -0.0176,-0.31674 -0.13037,-0.5151 -0.25063,-0.4408 -0.1202,0.0743 -0.15704,0.33325 -0.0816,0.57567 0.0754,0.24241 0.0279,0.61481 -0.10542,0.82734 -0.1783,0.28414 -0.2386,0.1791 -0.2279,-0.39687 0.032,-1.72439 -0.26525,-2.17626 -1.99368,-2.21847 z"
         id="path1895" />
      <path
         style="fill:#3a2702;fill-opacity:1;stroke:#000000;stroke-width:0.26458335;stroke-opacity:1"
         d="m 164.85039,98.550617 c -1.01814,-0.0217 -2.80312,0.3635 -3.00963,0.69764 -0.0922,0.14927 -0.16795,0.905293 -0.16795,1.680003 0,1.21532 0.0237,1.41594 -0.82424,1.31878 0.40454,0.22449 0.87803,0.27642 1.32498,0.1049 0.24211,-0.0929 0.64456,0.0219 0.90589,0.25839 0.25871,0.23413 0.98565,0.49092 1.61541,0.57102 0.44568,0.0567 0.88984,0.15605 1.1715,0.2527 0.21541,-0.0835 0.4124,-0.23181 0.68575,-0.46612 0.35683,-0.30591 0.41563,-0.65897 0.28939,-1.74563 -0.19426,-1.672263 -0.67006,-2.452073 -1.60817,-2.636023 -0.1073,-0.021 -0.23748,-0.0326 -0.38293,-0.0357 z"
         id="path1873" />
      <path
         style="fill:#382604;stroke:#000000;stroke-width:0.26458335;stroke-opacity:1"
         d="m 187.33466,89.616468 c -0.4522,-0.274998 -0.74274,-0.579427 -0.64566,-0.676514 0.0971,-0.09708 0.28729,-0.0013 0.42266,0.212696 0.32955,0.521079 0.318,0.194464 -0.025,-0.707715 -0.45617,-1.199833 -0.12131,-1.888765 1.07456,-2.210782 0.77325,-0.208216 1.20673,-0.202533 1.62496,0.0213 0.48611,0.26016 0.54614,0.242075 0.40629,-0.122391 -0.22425,-0.584369 0.15033,-0.541075 0.52622,0.06082 0.26438,0.423347 0.45729,1.889787 0.37703,2.866065 -0.0947,1.151919 -2.2561,1.471742 -3.76105,0.556524 z"
         id="path2079" />
      <path
         style="fill:#382604;stroke:#000000;stroke-width:0.26458335;stroke-opacity:1"
         d="m 137.77576,96.255092 c -0.46196,-0.200943 -1.03189,-0.658312 -1.2665,-1.016376 -0.39947,-0.609666 -0.3906,-0.711972 0.13951,-1.610449 0.61227,-1.037717 1.07569,-1.222349 2.86385,-1.140998 1.15253,0.05243 1.16398,0.06257 1.48045,1.309614 0.17541,0.691224 0.21828,1.256771 0.0952,1.256771 -0.12302,0 -0.22368,0.126089 -0.22368,0.280199 0,0.154109 0.14883,0.190785 0.33073,0.0815 0.229,-0.137578 0.22019,-0.06239 -0.0286,0.244438 -0.19765,0.243726 -0.79296,0.563573 -1.32292,0.710774 -1.1671,0.324175 -1.04114,0.331211 -2.06805,-0.115475 z"
         id="path1997" />
      <path
         style="opacity:1;fill:#6d500e;fill-opacity:1;stroke-width:0.25053269"
         d="m 186.54867,87.104268 c -0.0221,-0.466953 0.13648,-0.775827 0.50146,-0.976778 0.84838,-0.467106 1.93862,-0.628806 2.54708,-0.37777 0.5605,0.231249 0.56055,0.231733 0.0446,0.382215 -0.31815,0.09279 -0.45937,0.04741 -0.36763,-0.118153 0.18503,-0.333904 -1.79632,-0.0046 -2.20981,0.367303 -0.15527,0.139634 -0.32754,0.513125 -0.38284,0.829979 -0.0876,0.501957 -0.10471,0.488212 -0.13286,-0.106796 z"
         id="path1983" />
      <path
         style="fill:#382604;stroke:none;stroke-width:0.26458335"
         d="m 165.3151,92.487042 c -0.76039,-0.397359 -0.96144,-0.687562 -1.15101,-1.661387 -0.2044,-1.049991 -0.16527,-1.232096 0.35532,-1.653646 0.32176,-0.260543 0.72065,-0.470548 0.88643,-0.466675 0.16578,0.0039 -0.0338,0.21223 -0.44344,0.463021 -0.61812,0.378391 -0.71942,0.585414 -0.59532,1.216657 0.0823,0.418373 0.14955,0.924388 0.14955,1.12448 0,0.200091 0.1786,0.363802 0.39688,0.363802 0.21828,0 0.39687,0.111662 0.39687,0.248139 0,0.284001 0.16973,0.30054 3.01095,0.293375 2.27853,-0.0057 2.9342,-0.37769 2.67503,-1.517486 -0.0724,-0.318505 -0.0122,-0.652954 0.13389,-0.743219 0.16087,-0.09943 0.26555,0.255537 0.26555,0.900517 0,1.351899 -0.40649,1.583666 -3.10661,1.771261 -1.66571,0.115726 -2.22648,0.05184 -2.97409,-0.338839 z"
         id="path1977" />
    </g>
  </g>
</svg>
