<svg xmlns="http://www.w3.org/2000/svg" viewBox="0 0 72 32" height="32mm" width="72mm"><path d="M685.793 291.148c-13.404 4.537-28.068-1.468-27.838 10.3-.101 2.694.667 4.23 3.63 7.265 2.148 2.199 3.612 4.596 3.415 5.592-.19.959-2.598 3.015-5.352 4.57l-5.007 2.826-2.243-2.816c-2.642-3.319-19.743-7.102-19.743-7.102l-16.704 3.408c-1.93 1.875-3.78 4.764-4.111 6.418-.473 2.366-1.018 2.9-2.545 2.5-2.28-.596-11.14 3.077-11.14 4.618h-.003c0 .58-1.8 1.056-4 1.056-5.475 0-8.309-2.83-7.445-7.433.541-2.886.134-3.906-2.889-7.252l-3.517-3.893c-9.18-5.012-7.106-6.804-15.139-1.4-9.309.045-16.02 5.404-17.375 13.875l-.6 3.75-4.91-.073c-4.925-.073-9.788 2.541-8.525 4.584.303.49.099.769-.453.618-.552-.152-1.633.569-2.403 1.601-1.19 1.595-1.741 1.694-3.675.658-3.306-1.769-8.515-.44-11.762 3-1.62 1.716-3.852 2.978-5.3 2.996-3.234.042-5.657 1.924-6.991 5.432-2.065 5.431 1.428 10.825 6.717 10.37 2.817-.244 3.615.207 5.314 3.001 2.673 4.396 7.877 6.559 12.623 5.248 2.732-.754 3.892-.664 4.942.385.754.754 4.413 1.642 8.13 1.97 3.718.33 7.94.978 9.381 1.444 1.703.55 3.696.395 5.69-.443 2.603-1.095 3.257-1.061 4.316.215 1.946 2.343 10.264 6.226 14.944 6.974 2.329.373 5.065 1.51 6.082 2.526 2.271 2.271 6.59 2.392 8.957.25 2.2-1.992 3.524-1.215 5.34 3.13 1.47 3.52 5.013 5.271 8.193 4.051.915-.351 2.436.083 3.424.977.977.885 3.725 1.855 6.105 2.158 2.38.303 4.81.929 5.4 1.39.59.463 3.515 1.497 6.5 2.3 2.986.802 6.797 1.487 8.47 1.525 4.761.103 14.587-2.778 18.687-5.479 4.07-2.68 11.457-3.368 13.562-1.263 1.547 1.547 10.788 1.402 12.717-.2.82-.68 1.492-1.857 1.492-2.615 0-.92 1.222-1.377 3.686-1.377 2.145 0 4.548-.763 5.75-1.824 2.758-2.436 9.712-4.428 10.99-3.15.536.536 2.45.974 4.252.974 2.39 0 3.72-.676 4.912-2.496 1.502-2.291 2.062-2.444 6.858-1.88 4.735.556 5.402.381 7.166-1.86 1.611-2.049 2.368-2.314 4.416-1.555 3.481 1.291 8.783.068 11.503-2.652 1.61-1.61 3.081-2.162 4.85-1.824 4.267.815 12.427-1.675 14.62-4.461 1.649-2.097 1.885-3.48 1.398-8.149-.64-6.13-2.503-11.134-4.881-13.107-.835-.693-1.52-2.305-1.52-3.582 0-3.817-3.952-7.484-8.763-8.13-2.344-.314-4.204-1.073-4.131-1.687.638-5.408-2.723-9.934-8.285-11.156-1.663-.365-3.878-1.518-4.922-2.562-1.044-1.044-3.22-1.899-4.836-1.899-1.86 0-4.13-1.088-6.18-2.96-1.782-1.629-4.479-3.23-5.992-3.563-1.514-.333-3.288-1.252-3.943-2.041-.656-.79-1.938-1.436-2.85-1.436-.92 0-2.157-1.32-2.78-2.969-1.32-3.499-4.592-5.098-15.68-7.666z" transform="matrix(.26718 0 0 .28221 -132.783 -80.808)" fill="#6c4703" stroke="#000" stroke-width="3.78"/><path d="M180.92 77.033c-1.44.875.452 6.522 1.704 7.18.635.328.812.63.964 1.646.103.684.406 1.48.675 1.768.959 1.03.916 3.92-.054 3.623-.208-.064-1.19-.116-2.184-.115-1.92.001-2.283.217-2.29 1.354-.003.328.242.843.543 1.144.302.301.593.779.647 1.06.164.85-.415 2.186-1.26 2.91-.713.611-.899.654-1.791.416-1.231-.328-3.06.262-3.002.968.02.243-.07.377-.198.297-.13-.08-.236.094-.236.386 0 .563-1.313 1.697-2.318 2.002-.33.1-.55.263-.49.362.2.322-3.718.355-4.887.04-.973-.261-1.185-.245-1.448.115-.169.232-.488.42-.709.42-.22 0-.544.172-.717.382-.017.02-.026.036-.04.054.264.137.942.37 1.633.555.79.212 1.798.393 2.24.403.697.016 1.802-.215 2.835-.541a8.346 8.346 0 001.58-.76 4.09 4.09 0 011.176-.475c1.083-.423 2.484-.465 2.942-.008.316.316 1.837.364 2.754.177.029-.017.059-.034.081-.053.217-.18.395-.491.395-.692 0-.19.204-.303.601-.344.127-.131.426-.197.904-.197.2 0 .41-.026.61-.071a1.57 1.57 0 00.381-.235c.373-.329 1.035-.625 1.64-.794.758-.294 1.582-.431 1.798-.216.142.142.648.258 1.125.258.116 0 .22-.008.318-.021.17-.105.315-.254.452-.463.26-.396.419-.548.848-.566.262-.22.596-.214 1.496-.108.454.053.764.08 1 .066a2 2 0 00.366-.381c.323-.411.517-.55.827-.507.257-.229.47-.23.871-.081.484.179 1.1.171 1.68.022.321-.139.61-.324.834-.547.319-.319.617-.48.942-.505.278-.166.557-.215.871-.155.536.103 1.303.004 2.023-.202.581-.22 1.08-.503 1.316-.802.436-.555.499-.92.37-2.156-.17-1.622-.663-2.946-1.292-3.468-.22-.183-.402-.61-.402-.948 0-1.01-1.046-1.98-2.319-2.15-.62-.084-1.112-.284-1.093-.447.17-1.43-.72-2.628-2.192-2.952-.44-.096-1.026-.401-1.302-.678-.276-.276-.852-.502-1.28-.502-.491 0-1.092-.287-1.634-.783-.472-.43-1.185-.855-1.586-.943-.4-.088-.87-.331-1.043-.54-.174-.209-.513-.38-.754-.38-.244 0-.571-.35-.736-.785-.349-.926-1.215-1.35-4.148-2.029l-.037-.009z" fill="#3a2702" stroke="#000" stroke-width=".265" transform="matrix(1.00981 0 0 1.06663 -132.783 -80.808)"/><path d="M167.695 88.521c-3.302 0-3.676.226-3.518 2.12.126 1.513.307 1.698 2.07 2.125.774.187 1.764.349 2.201.359 1.073.025 3.03-.582 3.303-1.025.367-.595-.018-2.213-.695-2.917-.598-.622-.801-.662-3.361-.662z" fill="#3a2702" stroke="#000" stroke-width=".265" transform="matrix(1.00981 0 0 1.06663 -132.783 -80.808)"/><path d="M23.196 18.411c-.25-.006-.53-.004-.84.005-1.108.031-1.957.118-1.886.192.07.075-.059.517-.287.984-.322.657-.342.897-.087 1.063.25.163.258.427.036 1.101-.161.488-.19.82-.066.739.124-.082.374.041.556.272.182.232.242.42.134.42-.108 0 .088.244.435.54.347.298.69.478.764.4.073-.076-.107-.332-.401-.569-.534-.429-.534-.429 0-.274.5.144 2.31.275 2.96.213.38-.036 1.408-2.536 1.367-3.322-.018-.338-.132-.55-.253-.47-.122.079-.159.355-.083.613.077.259.029.656-.106.883-.18.303-.24.191-.23-.423.032-1.84-.268-2.322-2.013-2.367z" fill="#3a2702"/><path d="M164.85 98.55c-1.018-.021-2.803.364-3.01.698-.091.15-.167.906-.167 1.68 0 1.216.024 1.416-.824 1.319.404.225.878.276 1.325.105.242-.093.644.022.905.258.26.234.986.491 1.616.571.446.057.89.156 1.171.253.216-.083.413-.232.686-.466.357-.306.416-.659.29-1.746-.195-1.672-.67-2.452-1.609-2.636a2.3 2.3 0 00-.383-.035z" fill="#3a2702" stroke="#000" stroke-width=".265" transform="matrix(1.00981 0 0 1.06663 -132.783 -80.808)"/><path d="M187.335 89.616c-.453-.275-.743-.579-.646-.676.097-.097.287-.001.423.213.33.52.318.194-.025-.708-.457-1.2-.122-1.889 1.074-2.21.773-.21 1.207-.203 1.625.02.486.26.546.243.406-.122-.224-.584.15-.541.527.06.264.424.457 1.89.377 2.867-.095 1.152-2.256 1.472-3.761.556zM137.776 96.255c-.462-.2-1.032-.658-1.267-1.016-.4-.61-.39-.712.14-1.61.612-1.038 1.075-1.223 2.864-1.142 1.152.053 1.164.063 1.48 1.31.175.691.218 1.257.095 1.257s-.223.126-.223.28c0 .154.148.19.33.081.23-.137.22-.062-.028.245-.198.244-.793.563-1.323.71-1.167.325-1.041.332-2.068-.115z" fill="#382604" stroke="#000" stroke-width=".265" transform="matrix(1.00981 0 0 1.06663 -132.783 -80.808)"/><path d="M55.596 12.1c-.022-.497.138-.827.507-1.041.856-.498 1.957-.67 2.572-.403.566.247.566.247.045.408-.322.099-.464.05-.371-.126.186-.356-1.814-.005-2.232.391-.157.15-.33.548-.387.886-.088.535-.105.52-.134-.114z" fill="#6d500e"/><path d="M34.154 17.842c-.768-.424-.97-.733-1.162-1.772-.206-1.12-.167-1.314.359-1.764.325-.278.727-.502.895-.497.167.004-.034.226-.448.493-.624.404-.726.625-.601 1.298.083.446.151.986.151 1.2 0 .213.18.388.4.388.221 0 .402.119.402.264 0 .303.17.32 3.04.313 2.3-.006 2.963-.403 2.701-1.618-.073-.34-.012-.697.135-.793.163-.106.269.272.269.96 0 1.442-.41 1.69-3.137 1.89-1.683.123-2.249.055-3.004-.362z" fill="#382604"/></svg>